<svg version="1.1" id="Layer_1" xmlns="http://www.w3.org/2000/svg" xmlns:xlink="http://www.w3.org/1999/xlink" x="0px" y="0px"
	 width="100%" viewBox="0 0 512 512" enable-background="new 0 0 512 512" xml:space="preserve">
<path fill="#2F59FF" opacity="1.000000" stroke="none" 
	d="
M513.000000,273.000000 
	C513.000000,280.687592 513.000000,288.375153 512.709351,296.211853 
	C510.861359,299.161285 509.718567,302.317627 507.673523,304.699158 
	C499.622253,314.074921 491.423584,323.333374 483.024658,332.399170 
	C471.317200,345.036163 459.396912,357.476349 447.538879,369.973419 
	C434.649475,383.557465 421.766113,397.147675 408.806702,410.664825 
	C398.234619,421.691833 387.554565,432.615326 376.921692,443.584045 
	C376.573914,443.942841 376.220367,444.296112 375.867004,444.649445 
	C364.115906,456.399139 352.943512,468.808167 340.480255,479.746460 
	C320.824310,496.997284 297.341888,506.691376 271.623199,511.089569 
	C270.991669,511.197571 270.537109,512.340027 270.000000,513.000000 
	C244.645767,513.000000 219.291550,513.000000 193.739319,512.642456 
	C192.872253,511.866577 192.249100,511.198700 191.527512,511.066040 
	C164.047012,506.012787 140.133636,494.051849 119.992599,474.565765 
	C115.936745,470.641785 115.833633,466.610931 118.530739,461.924744 
	C124.973228,458.646179 127.264626,458.961823 132.248810,463.528809 
	C150.652969,480.392487 171.931915,492.013489 196.789169,494.946198 
	C213.742416,496.946350 231.001862,496.923798 248.118805,496.825867 
	C272.083160,496.688782 294.384583,489.965118 315.067627,477.763641 
	C330.799042,468.483276 343.131195,455.467651 355.509735,442.350250 
	C390.955658,404.788513 426.646362,367.457825 462.223297,330.019653 
	C471.747955,319.996704 481.350616,310.042023 490.649872,299.812714 
	C496.538849,293.334747 499.052399,285.739685 495.126190,277.255310 
	C491.231201,268.838348 484.377747,264.711792 475.125763,265.040955 
	C451.960907,265.865143 432.532593,274.577484 417.499634,292.560150 
	C404.679443,307.895905 391.782379,323.168182 378.822205,338.385834 
	C372.103760,346.274536 363.394501,347.924103 353.869720,345.091156 
	C344.163025,342.204041 337.462921,335.335144 337.330353,325.338654 
	C337.031738,302.821869 335.789124,280.422058 342.178345,257.988434 
	C358.681763,200.042160 373.682098,141.667770 389.277344,83.462906 
	C392.506683,71.410316 388.937866,59.854515 379.884766,52.960262 
	C363.130402,40.201214 341.283386,48.044964 335.099823,69.373260 
	C320.961487,118.138786 307.062988,166.973862 293.075104,215.783005 
	C288.993530,230.025070 284.955048,244.279465 280.862549,258.518372 
	C279.595520,262.926575 276.702911,265.309113 272.004852,264.865814 
	C267.785889,264.467712 265.228821,261.317535 265.014679,256.550812 
	C264.947418,255.053986 264.995453,253.551834 264.995453,252.052124 
	C264.994965,192.562775 264.995544,133.073425 264.994415,73.584068 
	C264.994232,63.919151 265.135010,54.251419 264.951172,44.589924 
	C264.606171,26.457041 247.732361,13.623645 230.089920,17.923559 
	C217.414902,21.012787 209.014404,32.111813 209.009720,45.982738 
	C208.987183,112.804092 208.999481,179.625473 208.993546,246.446838 
	C208.993393,248.278595 209.128372,250.141342 208.852448,251.936172 
	C208.083206,256.940460 202.745422,260.445801 198.510330,258.053253 
	C196.000458,256.635376 193.634003,253.497025 192.866348,250.679153 
	C178.778427,198.964645 164.974152,147.172958 151.020416,95.421715 
	C148.814880,87.241920 147.010590,78.801277 143.548111,71.147453 
	C137.814133,58.472485 122.592278,52.964481 109.657272,57.779804 
	C96.137352,62.812874 88.337166,76.458054 91.926765,90.120171 
	C104.235550,136.967712 116.813087,183.744614 129.280014,230.550613 
	C132.964325,244.383026 136.619049,258.223297 140.292969,272.058441 
	C141.431076,276.344330 139.482788,279.202454 135.869110,281.038300 
	C132.003891,283.001923 128.738541,281.743134 126.174881,278.503662 
	C125.253326,277.339142 124.595284,275.962402 123.846283,274.665558 
	C103.268944,239.038544 82.785072,203.357101 62.073143,167.808502 
	C54.707741,155.167023 40.690880,151.651276 28.465086,158.824951 
	C17.075794,165.507797 13.671268,179.745438 20.707230,191.997971 
	C34.476616,215.976196 48.124767,240.028122 62.222858,263.812592 
	C82.574364,298.147003 92.945404,335.068695 93.187950,375.032959 
	C93.245911,384.582886 95.089493,394.223572 97.057442,403.624573 
	C98.368439,409.887299 98.682884,415.083618 92.376328,418.988098 
	C85.286484,418.939362 83.997444,417.897064 81.804443,411.430176 
	C77.106285,397.575928 76.570053,383.073181 76.218124,368.758362 
	C75.758934,350.080627 72.395111,332.126251 67.141335,314.319763 
	C59.899029,289.773560 45.331295,268.964661 33.290466,246.872742 
	C23.337885,228.612213 12.994975,210.564301 2.764211,192.456543 
	C2.556741,192.089325 1.604686,192.142792 1.000000,192.000000 
	C1.000000,183.979095 1.000000,175.958191 1.298386,167.787567 
	C2.383152,166.080795 3.008719,164.413742 3.985056,162.986664 
	C7.367285,158.042999 10.126086,152.344727 14.485886,148.466873 
	C23.311451,140.616898 34.263706,137.675674 46.031685,139.067398 
	C56.274712,140.278793 65.797287,144.299500 71.693314,152.762909 
	C79.572060,164.072372 86.013725,176.384506 93.044815,188.282410 
	C97.481079,195.789368 101.866684,203.326248 106.275009,210.849716 
	C98.698097,180.387955 90.387230,150.239777 82.591042,119.959068 
	C79.313660,107.229576 74.180061,94.878006 74.893089,81.223778 
	C75.535149,68.928848 80.436104,59.032467 89.397240,50.912296 
	C98.785980,42.404659 109.877739,39.209213 122.420670,39.953979 
	C137.224518,40.832996 148.783524,47.559475 156.201187,60.024639 
	C160.175629,66.703598 162.365555,74.600517 164.499023,82.190048 
	C171.219315,106.096603 177.493423,130.128235 184.021820,154.089249 
	C186.554871,163.386185 189.305954,172.623703 191.969589,182.214859 
	C192.111557,183.214294 192.241638,183.887161 192.371735,184.560028 
	C192.887817,183.982666 192.986572,183.491714 192.986679,183.000717 
	C192.995743,138.485092 193.004684,93.969444 192.965698,49.453854 
	C192.964447,48.016899 192.467590,46.580379 192.264587,44.730125 
	C192.618347,41.409912 192.540207,38.408028 193.261368,35.612324 
	C197.319504,19.880161 206.543594,8.626465 222.102158,2.981952 
	C222.872986,2.702304 223.373581,1.677717 224.000000,1.000000 
	C232.354233,1.000000 240.708466,1.000000 249.211884,1.294464 
	C250.164413,2.067225 250.913986,2.700224 251.779068,3.000989 
	C269.339386,9.106196 281.507660,26.867811 281.183746,45.381874 
	C280.554382,81.357620 280.999542,117.352165 280.999542,153.338928 
	C280.999542,167.308685 280.999542,181.278458 280.999542,196.650742 
	C281.988739,194.079590 282.588348,192.816177 282.968048,191.489807 
	C288.595001,171.834595 294.222687,152.179474 299.788666,132.506927 
	C304.912445,114.397346 309.851746,96.234795 315.094604,78.160057 
	C317.485840,69.916344 319.289795,61.220638 323.312317,53.786221 
	C334.077179,33.890533 356.006226,25.815233 377.270599,33.061287 
	C398.314941,40.232357 409.585754,59.601925 406.666962,80.366859 
	C404.714569,94.256523 399.895813,107.751167 396.249359,121.393082 
	C389.878632,145.226868 383.408356,169.034042 377.006897,192.859650 
	C370.816559,215.899506 365.412689,239.185211 358.260681,261.921692 
	C352.102570,281.498291 352.985474,301.297516 353.097809,321.191132 
	C353.120361,325.189667 355.448364,328.982605 359.456848,329.468140 
	C361.946808,329.769714 365.329712,327.856079 367.333771,325.922852 
	C371.328674,322.069183 374.670166,317.533997 378.244629,313.249512 
	C386.223724,303.685455 393.924164,293.872925 402.234497,284.606781 
	C407.898193,278.291748 414.048859,272.299591 420.605408,266.923615 
	C433.146393,256.640717 448.141602,251.504776 463.932892,249.286377 
	C471.198486,248.265717 478.944794,248.556900 486.175110,249.880768 
	C497.537384,251.961227 505.067719,259.594849 510.039185,269.874603 
	C510.634552,271.105774 511.994446,271.967194 513.000000,273.000000 
z"/>
<path fill="#000000" opacity="1.000000" stroke="none" 
	d="
M513.000000,272.531342 
	C511.994446,271.967194 510.634552,271.105774 510.039185,269.874603 
	C505.067719,259.594849 497.537384,251.961227 486.175110,249.880768 
	C478.944794,248.556900 471.198486,248.265717 463.932892,249.286377 
	C448.141602,251.504776 433.146393,256.640717 420.605408,266.923615 
	C414.048859,272.299591 407.898193,278.291748 402.234497,284.606781 
	C393.924164,293.872925 386.223724,303.685455 378.244629,313.249512 
	C374.670166,317.533997 371.328674,322.069183 367.333771,325.922852 
	C365.329712,327.856079 361.946808,329.769714 359.456848,329.468140 
	C355.448364,328.982605 353.120361,325.189667 353.097809,321.191132 
	C352.985474,301.297516 352.102570,281.498291 358.260681,261.921692 
	C365.412689,239.185211 370.816559,215.899506 377.006897,192.859650 
	C383.408356,169.034042 389.878632,145.226868 396.249359,121.393082 
	C399.895813,107.751167 404.714569,94.256523 406.666962,80.366859 
	C409.585754,59.601925 398.314941,40.232357 377.270599,33.061287 
	C356.006226,25.815233 334.077179,33.890533 323.312317,53.786221 
	C319.289795,61.220638 317.485840,69.916344 315.094604,78.160057 
	C309.851746,96.234795 304.912445,114.397346 299.788666,132.506927 
	C294.222687,152.179474 288.595001,171.834595 282.968048,191.489807 
	C282.588348,192.816177 281.988739,194.079590 280.999542,196.650742 
	C280.999542,181.278458 280.999542,167.308685 280.999542,153.338928 
	C280.999542,117.352165 280.554382,81.357620 281.183746,45.381874 
	C281.507660,26.867811 269.339386,9.106196 251.779068,3.000989 
	C250.913986,2.700224 250.164413,2.067225 249.680527,1.294464 
	C337.594940,1.000000 425.189850,1.000000 513.000000,1.000000 
	C513.000000,91.354111 513.000000,181.708405 513.000000,272.531342 
z"/>
<path fill="#000000" opacity="1.000000" stroke="none" 
	d="
M1.000000,192.468658 
	C1.604686,192.142792 2.556741,192.089325 2.764211,192.456543 
	C12.994975,210.564301 23.337885,228.612213 33.290466,246.872742 
	C45.331295,268.964661 59.899029,289.773560 67.141335,314.319763 
	C72.395111,332.126251 75.758934,350.080627 76.218124,368.758362 
	C76.570053,383.073181 77.106285,397.575928 81.804443,411.430176 
	C83.997444,417.897064 85.286484,418.939362 92.476898,419.367920 
	C94.688217,424.054474 96.392204,428.374695 97.754570,432.898865 
	C93.906693,437.106171 94.080986,441.554565 96.453102,445.838318 
	C99.287872,450.957611 102.322754,451.960236 109.350784,450.986328 
	C112.497681,454.756622 115.331566,458.375305 118.165466,461.993988 
	C115.833633,466.610931 115.936745,470.641785 119.992599,474.565765 
	C140.133636,494.051849 164.047012,506.012787 191.527512,511.066040 
	C192.249100,511.198700 192.872253,511.866577 193.270660,512.642456 
	C129.054596,513.000000 65.109207,513.000000 1.000000,513.000000 
	C1.000000,406.312500 1.000000,299.624908 1.000000,192.468658 
z"/>
<path fill="#000000" opacity="1.000000" stroke="none" 
	d="
M270.468689,513.000000 
	C270.537109,512.340027 270.991669,511.197571 271.623199,511.089569 
	C297.341888,506.691376 320.824310,496.997284 340.480255,479.746460 
	C352.943512,468.808167 364.115906,456.399139 375.867004,444.649445 
	C376.220367,444.296112 376.573914,443.942841 376.921692,443.584045 
	C387.554565,432.615326 398.234619,421.691833 408.806702,410.664825 
	C421.766113,397.147675 434.649475,383.557465 447.538879,369.973419 
	C459.396912,357.476349 471.317200,345.036163 483.024658,332.399170 
	C491.423584,323.333374 499.622253,314.074921 507.673523,304.699158 
	C509.718567,302.317627 510.861359,299.161285 512.709351,296.680481 
	C513.000000,368.931335 513.000000,440.862671 513.000000,513.000000 
	C432.312561,513.000000 351.624939,513.000000 270.468689,513.000000 
z"/>
<path fill="#000000" opacity="1.000000" stroke="none" 
	d="
M223.531342,1.000000 
	C223.373581,1.677717 222.872986,2.702304 222.102158,2.981952 
	C206.543594,8.626465 197.319504,19.880161 193.261368,35.612324 
	C192.540207,38.408028 192.618347,41.409912 192.178314,45.177067 
	C192.005386,91.321129 191.981552,136.604706 191.957733,181.888290 
	C189.305954,172.623703 186.554871,163.386185 184.021820,154.089249 
	C177.493423,130.128235 171.219315,106.096603 164.499023,82.190048 
	C162.365555,74.600517 160.175629,66.703598 156.201187,60.024639 
	C148.783524,47.559475 137.224518,40.832996 122.420670,39.953979 
	C109.877739,39.209213 98.785980,42.404659 89.397240,50.912296 
	C80.436104,59.032467 75.535149,68.928848 74.893089,81.223778 
	C74.180061,94.878006 79.313660,107.229576 82.591042,119.959068 
	C90.387230,150.239777 98.698097,180.387955 106.275009,210.849716 
	C101.866684,203.326248 97.481079,195.789368 93.044815,188.282410 
	C86.013725,176.384506 79.572060,164.072372 71.693314,152.762909 
	C65.797287,144.299500 56.274712,140.278793 46.031685,139.067398 
	C34.263706,137.675674 23.311451,140.616898 14.485886,148.466873 
	C10.126086,152.344727 7.367285,158.042999 3.985056,162.986664 
	C3.008719,164.413742 2.383152,166.080795 1.298386,167.318909 
	C1.000000,111.728943 1.000000,56.457890 1.000000,1.000000 
	C75.020790,1.000000 149.041733,1.000000 223.531342,1.000000 
z"/>
<path fill="#8BC4FF" opacity="1.000000" stroke="none" 
	d="
M98.096207,432.694885 
	C96.392204,428.374695 94.688217,424.054474 92.883659,419.354462 
	C98.682884,415.083618 98.368439,409.887299 97.057442,403.624573 
	C95.089493,394.223572 93.245911,384.582886 93.187950,375.032959 
	C92.945404,335.068695 82.574364,298.147003 62.222858,263.812592 
	C48.124767,240.028122 34.476616,215.976196 20.707230,191.997971 
	C13.671268,179.745438 17.075794,165.507797 28.465086,158.824951 
	C40.690880,151.651276 54.707741,155.167023 62.073143,167.808502 
	C82.785072,203.357101 103.268944,239.038544 123.846283,274.665558 
	C124.595284,275.962402 125.253326,277.339142 126.174881,278.503662 
	C128.738541,281.743134 132.003891,283.001923 135.869110,281.038300 
	C139.482788,279.202454 141.431076,276.344330 140.292969,272.058441 
	C136.619049,258.223297 132.964325,244.383026 129.280014,230.550613 
	C116.813087,183.744614 104.235550,136.967712 91.926765,90.120171 
	C88.337166,76.458054 96.137352,62.812874 109.657272,57.779804 
	C122.592278,52.964481 137.814133,58.472485 143.548111,71.147453 
	C147.010590,78.801277 148.814880,87.241920 151.020416,95.421715 
	C164.974152,147.172958 178.778427,198.964645 192.866348,250.679153 
	C193.634003,253.497025 196.000458,256.635376 198.510330,258.053253 
	C202.745422,260.445801 208.083206,256.940460 208.852448,251.936172 
	C209.128372,250.141342 208.993393,248.278595 208.993546,246.446838 
	C208.999481,179.625473 208.987183,112.804092 209.009720,45.982738 
	C209.014404,32.111813 217.414902,21.012787 230.089920,17.923559 
	C247.732361,13.623645 264.606171,26.457041 264.951172,44.589924 
	C265.135010,54.251419 264.994232,63.919151 264.994415,73.584068 
	C264.995544,133.073425 264.994965,192.562775 264.995453,252.052124 
	C264.995453,253.551834 264.947418,255.053986 265.014679,256.550812 
	C265.228821,261.317535 267.785889,264.467712 272.004852,264.865814 
	C276.702911,265.309113 279.595520,262.926575 280.862549,258.518372 
	C284.955048,244.279465 288.993530,230.025070 293.075104,215.783005 
	C307.062988,166.973862 320.961487,118.138786 335.099823,69.373260 
	C341.283386,48.044964 363.130402,40.201214 379.884766,52.960262 
	C388.937866,59.854515 392.506683,71.410316 389.277344,83.462906 
	C373.682098,141.667770 358.681763,200.042160 342.178345,257.988434 
	C335.789124,280.422058 337.031738,302.821869 337.330353,325.338654 
	C337.462921,335.335144 344.163025,342.204041 353.869720,345.091156 
	C363.394501,347.924103 372.103760,346.274536 378.822205,338.385834 
	C391.782379,323.168182 404.679443,307.895905 417.499634,292.560150 
	C432.532593,274.577484 451.960907,265.865143 475.125763,265.040955 
	C484.377747,264.711792 491.231201,268.838348 495.126190,277.255310 
	C499.052399,285.739685 496.538849,293.334747 490.649872,299.812714 
	C481.350616,310.042023 471.747955,319.996704 462.223297,330.019653 
	C426.646362,367.457825 390.955658,404.788513 355.509735,442.350250 
	C343.131195,455.467651 330.799042,468.483276 315.067627,477.763641 
	C294.384583,489.965118 272.083160,496.688782 248.118805,496.825867 
	C231.001862,496.923798 213.742416,496.946350 196.789169,494.946198 
	C171.931915,492.013489 150.652969,480.392487 132.248810,463.528809 
	C127.264626,458.961823 124.973228,458.646179 118.530731,461.924744 
	C115.331566,458.375305 112.497681,454.756622 109.499969,450.682800 
	C113.996964,444.773315 114.079338,441.364288 110.057411,435.729034 
	C106.857666,431.245789 102.613815,431.604034 98.096207,432.694885 
M238.416702,402.982758 
	C256.530334,370.704590 283.921967,351.579193 320.305969,345.168213 
	C326.605865,344.058167 329.675964,340.585724 328.851227,335.733826 
	C327.990723,330.671722 323.577026,328.087830 317.244293,329.564148 
	C308.674591,331.561859 299.985229,333.374878 291.728180,336.331146 
	C243.687378,353.531219 208.616714,403.677032 208.998734,454.093964 
	C209.046082,460.343140 212.049988,464.007965 217.075073,463.947266 
	C221.919571,463.888794 224.895996,460.367737 224.995621,454.407074 
	C225.296036,436.434601 229.691635,419.527100 238.416702,402.982758 
z"/>
<path fill="#3366FF" opacity="1.000000" stroke="none" 
	d="
M191.969604,182.214859 
	C191.981552,136.604706 192.005386,91.321129 192.115509,45.590603 
	C192.467590,46.580379 192.964447,48.016899 192.965698,49.453854 
	C193.004684,93.969444 192.995743,138.485092 192.986679,183.000717 
	C192.986572,183.491714 192.887817,183.982666 192.371735,184.560028 
	C192.241638,183.887161 192.111557,183.214294 191.969604,182.214859 
z"/>
<path fill="#2F59FF" opacity="1.000000" stroke="none" 
	d="
M97.754578,432.898865 
	C102.613815,431.604034 106.857666,431.245789 110.057411,435.729034 
	C114.079338,441.364288 113.996964,444.773315 109.186974,450.531189 
	C102.322754,451.960236 99.287872,450.957611 96.453102,445.838318 
	C94.080986,441.554565 93.906693,437.106171 97.754578,432.898865 
z"/>
<path fill="#305AFF" opacity="1.000000" stroke="none" 
	d="
M238.249115,403.313721 
	C229.691635,419.527100 225.296036,436.434601 224.995621,454.407074 
	C224.895996,460.367737 221.919571,463.888794 217.075073,463.947266 
	C212.049988,464.007965 209.046082,460.343140 208.998734,454.093964 
	C208.616714,403.677032 243.687378,353.531219 291.728180,336.331146 
	C299.985229,333.374878 308.674591,331.561859 317.244293,329.564148 
	C323.577026,328.087830 327.990723,330.671722 328.851227,335.733826 
	C329.675964,340.585724 326.605865,344.058167 320.305969,345.168213 
	C283.921967,351.579193 256.530334,370.704590 238.249115,403.313721 
z"/>
</svg>