<svg xmlns="http://www.w3.org/2000/svg" xmlns:xlink="http://www.w3.org/1999/xlink" width="500" zoomAndPan="magnify" viewBox="0 0 375 374.999991" height="500" preserveAspectRatio="xMidYMid meet" version="1.0"><path fill="#62ddbd" d="M 189.9375 3.972656 C 197.703125 9.539062 202.738281 16.398438 205.078125 25.636719 C 205.269531 28.0625 205.269531 28.0625 205.28125 30.617188 C 205.285156 31.089844 205.289062 31.566406 205.292969 32.054688 C 205.308594 33.625 205.308594 35.199219 205.3125 36.773438 C 205.320312 37.90625 205.324219 39.039062 205.332031 40.171875 C 205.355469 43.242188 205.363281 46.308594 205.375 49.375 C 205.386719 52.582031 205.40625 55.792969 205.425781 59.003906 C 205.457031 65.074219 205.484375 71.148438 205.507812 77.21875 C 205.539062 84.132812 205.574219 91.050781 205.609375 97.964844 C 205.6875 112.183594 205.75 126.40625 205.808594 140.625 C 205.996094 139.96875 205.996094 139.96875 206.1875 139.304688 C 209.230469 128.621094 212.277344 117.9375 215.324219 107.253906 C 216.796875 102.089844 218.269531 96.921875 219.742188 91.753906 C 221.027344 87.246094 222.3125 82.734375 223.601562 78.226562 C 224.28125 75.84375 224.957031 73.460938 225.636719 71.078125 C 228.070312 62.53125 230.5 53.984375 233.125 45.492188 C 233.292969 44.941406 233.460938 44.390625 233.632812 43.824219 C 236.164062 35.777344 241.503906 29.644531 248.652344 25.242188 C 256.609375 21.195312 266.097656 20.035156 274.65625 22.707031 C 284.0625 26.4375 290.726562 31.734375 295.164062 41.015625 C 299.164062 51.015625 297.347656 60.902344 294.558594 70.9375 C 294.257812 72.054688 293.960938 73.171875 293.664062 74.289062 C 293.03125 76.648438 292.394531 79.003906 291.75 81.359375 C 290.78125 84.910156 289.835938 88.464844 288.894531 92.019531 C 287.429688 97.558594 285.953125 103.089844 284.46875 108.621094 C 283.394531 112.625 282.328125 116.628906 281.265625 120.636719 C 277.617188 134.378906 273.917969 148.097656 269.960938 161.757812 C 256.605469 199.683594 256.605469 199.683594 259.5625 237.9375 C 260.660156 239.675781 260.660156 239.675781 262.800781 240.324219 C 265.382812 240.226562 266.441406 239.664062 268.304688 237.910156 C 270.394531 235.632812 272.328125 233.238281 274.257812 230.824219 C 276.257812 228.328125 278.335938 225.902344 280.425781 223.480469 C 281.175781 222.609375 281.925781 221.734375 282.675781 220.863281 C 283.234375 220.214844 283.234375 220.214844 283.804688 219.554688 C 285.570312 217.496094 287.324219 215.433594 289.078125 213.363281 C 289.410156 212.972656 289.746094 212.578125 290.089844 212.175781 C 291.640625 210.347656 293.152344 208.503906 294.628906 206.613281 C 304.816406 193.566406 320.230469 184.167969 336.761719 181.808594 C 340.164062 181.453125 343.566406 181.367188 346.984375 181.320312 C 347.6875 181.304688 348.386719 181.289062 349.113281 181.269531 C 356.945312 181.296875 362.566406 183.90625 368.210938 189.273438 C 374.535156 196.457031 375.632812 203.828125 375.148438 213.046875 C 374.359375 221.222656 368.828125 226.707031 363.28125 232.179688 C 362.683594 232.777344 362.085938 233.375 361.472656 233.988281 C 360.378906 235.082031 359.28125 236.167969 358.183594 237.253906 C 356.796875 238.660156 355.5 240.105469 354.21875 241.609375 C 352.101562 244.078125 349.847656 246.375 347.535156 248.65625 C 345.265625 250.894531 343.050781 253.140625 340.988281 255.570312 C 338.777344 258.160156 336.40625 260.546875 333.984375 262.941406 C 331.578125 265.316406 329.21875 267.683594 327.027344 270.265625 C 324.480469 273.257812 321.695312 275.984375 318.898438 278.742188 C 316.441406 281.179688 314.136719 283.695312 311.894531 286.335938 C 309.84375 288.628906 307.640625 290.761719 305.453125 292.921875 C 303.542969 294.816406 301.714844 296.734375 299.972656 298.78125 C 297.761719 301.375 295.390625 303.761719 292.96875 306.152344 C 290.5625 308.527344 288.203125 310.898438 286.011719 313.476562 C 283.464844 316.472656 280.679688 319.195312 277.882812 321.957031 C 275.425781 324.394531 273.121094 326.910156 270.878906 329.546875 C 268.828125 331.839844 266.625 333.976562 264.433594 336.132812 C 262.519531 338.03125 260.714844 339.960938 259.003906 342.042969 C 242.90625 360.730469 215.484375 372.996094 191.160156 375 C 187.859375 375.117188 184.558594 375.136719 181.253906 375.148438 C 180.300781 375.152344 179.347656 375.15625 178.363281 375.160156 C 176.347656 375.167969 174.332031 375.171875 172.316406 375.175781 C 170.273438 375.179688 168.230469 375.1875 166.191406 375.207031 C 144.492188 375.378906 144.492188 375.378906 134.03125 372.804688 C 133.273438 372.621094 133.273438 372.621094 132.5 372.4375 C 118.777344 369.125 105.363281 362.800781 94.480469 353.761719 C 94.070312 353.417969 93.65625 353.078125 93.230469 352.726562 C 85.265625 346.0625 85.265625 346.0625 84.226562 341.308594 C 84.425781 340.628906 84.621094 339.949219 84.824219 339.25 C 85.023438 335.855469 83.546875 334.222656 81.425781 331.671875 C 79.21875 329.800781 77.578125 329.78125 74.769531 329.757812 C 73.242188 329.589844 73.242188 329.589844 71.042969 327.804688 C 68.707031 324.808594 68.449219 322.339844 68.847656 318.605469 C 69.121094 318.015625 69.394531 317.425781 69.675781 316.820312 C 70.503906 314.378906 70.003906 313.445312 68.9375 311.140625 C 67.382812 307.703125 67.382812 307.703125 67.382812 306.152344 C 66.734375 306.226562 66.082031 306.304688 65.414062 306.382812 C 62.988281 306.152344 62.988281 306.152344 61.109375 304.691406 C 58.902344 301.96875 58.339844 299.738281 57.679688 296.355469 C 57.5625 295.820312 57.445312 295.289062 57.324219 294.738281 C 56.222656 289.597656 55.585938 284.519531 55.375 279.261719 C 55.328125 278.167969 55.277344 277.074219 55.226562 275.980469 C 55.203125 275.414062 55.175781 274.84375 55.152344 274.261719 C 53.515625 239.320312 42.21875 212.523438 24.714844 182.679688 C 21.277344 176.808594 17.90625 170.898438 14.539062 164.984375 C 12.246094 160.957031 9.949219 156.933594 7.609375 152.933594 C 7.203125 152.234375 6.796875 151.535156 6.378906 150.816406 C 5.632812 149.53125 4.878906 148.246094 4.121094 146.964844 C -0.402344 139.164062 -1.46875 130.363281 0.503906 121.523438 C 1.183594 119.722656 1.964844 118.121094 2.929688 116.457031 C 3.238281 115.886719 3.550781 115.320312 3.871094 114.734375 C 8.007812 107.84375 14.285156 103.832031 21.816406 101.378906 C 30.75 99.691406 38.898438 101.289062 46.644531 105.925781 C 53.398438 110.789062 57.035156 117.9375 60.898438 125.085938 C 63.289062 129.492188 65.8125 133.824219 68.34375 138.152344 C 68.773438 138.890625 69.203125 139.628906 69.644531 140.386719 C 72 144.417969 74.421875 148.394531 76.902344 152.34375 C 76.738281 151.734375 76.574219 151.121094 76.402344 150.492188 C 75.59375 147.519531 74.789062 144.542969 73.984375 141.570312 C 73.832031 141.015625 73.683594 140.457031 73.527344 139.886719 C 71.699219 133.148438 69.878906 126.40625 68.0625 119.664062 C 67.894531 119.046875 67.730469 118.429688 67.558594 117.792969 C 66.886719 115.308594 66.21875 112.824219 65.550781 110.339844 C 63.757812 103.683594 61.957031 97.03125 60.109375 90.390625 C 59.335938 87.609375 58.574219 84.828125 57.820312 82.042969 C 57.488281 80.835938 57.148438 79.632812 56.808594 78.433594 C 53.730469 67.65625 51.929688 55.859375 57.128906 45.410156 C 61.777344 37.808594 68.660156 31.660156 77.242188 29.074219 C 87.496094 27.058594 97.234375 28.253906 106.019531 34.105469 C 112.050781 38.851562 115.527344 44.160156 117.847656 51.394531 C 118.035156 51.96875 118.222656 52.542969 118.414062 53.136719 C 120.5 59.625 122.246094 66.199219 123.96875 72.792969 C 124.316406 74.109375 124.664062 75.429688 125.011719 76.746094 C 125.917969 80.175781 126.816406 83.609375 127.71875 87.039062 C 128.628906 90.511719 129.542969 93.984375 130.460938 97.453125 C 131.652344 101.972656 132.839844 106.492188 134.027344 111.011719 C 135.722656 117.46875 137.433594 123.921875 139.160156 130.371094 C 139.164062 129.871094 139.164062 129.371094 139.167969 128.855469 C 139.226562 116.632812 139.292969 104.410156 139.371094 92.1875 C 139.40625 86.277344 139.441406 80.367188 139.46875 74.457031 C 139.492188 69.300781 139.523438 64.148438 139.558594 58.992188 C 139.574219 56.265625 139.59375 53.539062 139.601562 50.8125 C 139.613281 47.757812 139.636719 44.707031 139.660156 41.652344 C 139.660156 40.316406 139.660156 40.316406 139.664062 38.953125 C 139.769531 28.027344 141.074219 17.519531 148.867188 9.21875 C 159.976562 -0.871094 176.609375 -4.1875 189.9375 3.972656 Z M 189.9375 3.972656 " fill-opacity="1" fill-rule="nonzero"/><path fill="#2d9a80" d="M 189.9375 3.972656 C 197.703125 9.539062 202.738281 16.398438 205.078125 25.636719 C 205.269531 28.0625 205.269531 28.0625 205.28125 30.617188 C 205.285156 31.089844 205.289062 31.566406 205.292969 32.054688 C 205.308594 33.625 205.308594 35.199219 205.3125 36.773438 C 205.320312 37.90625 205.324219 39.039062 205.332031 40.171875 C 205.355469 43.242188 205.363281 46.308594 205.375 49.375 C 205.386719 52.582031 205.40625 55.792969 205.425781 59.003906 C 205.457031 65.074219 205.484375 71.148438 205.507812 77.21875 C 205.539062 84.132812 205.574219 91.050781 205.609375 97.964844 C 205.6875 112.183594 205.75 126.40625 205.808594 140.625 C 205.996094 139.96875 205.996094 139.96875 206.1875 139.304688 C 209.230469 128.621094 212.277344 117.9375 215.324219 107.253906 C 216.796875 102.089844 218.269531 96.921875 219.742188 91.753906 C 221.027344 87.246094 222.3125 82.734375 223.601562 78.226562 C 224.28125 75.84375 224.957031 73.460938 225.636719 71.078125 C 228.070312 62.53125 230.5 53.984375 233.125 45.492188 C 233.292969 44.941406 233.460938 44.390625 233.632812 43.824219 C 236.164062 35.777344 241.503906 29.644531 248.652344 25.242188 C 256.609375 21.195312 266.097656 20.035156 274.65625 22.707031 C 284.0625 26.4375 290.726562 31.734375 295.164062 41.015625 C 299.164062 51.015625 297.347656 60.902344 294.558594 70.9375 C 294.257812 72.054688 293.960938 73.171875 293.664062 74.289062 C 293.03125 76.648438 292.394531 79.003906 291.75 81.359375 C 290.78125 84.910156 289.835938 88.464844 288.894531 92.019531 C 287.429688 97.558594 285.953125 103.089844 284.46875 108.621094 C 283.394531 112.625 282.328125 116.628906 281.265625 120.636719 C 277.617188 134.378906 273.917969 148.097656 269.960938 161.757812 C 256.605469 199.683594 256.605469 199.683594 259.5625 237.9375 C 260.660156 239.675781 260.660156 239.675781 262.800781 240.324219 C 265.382812 240.226562 266.441406 239.664062 268.304688 237.910156 C 270.394531 235.632812 272.328125 233.238281 274.257812 230.824219 C 276.257812 228.328125 278.335938 225.902344 280.425781 223.480469 C 281.175781 222.609375 281.925781 221.734375 282.675781 220.863281 C 283.234375 220.214844 283.234375 220.214844 283.804688 219.554688 C 285.570312 217.496094 287.324219 215.433594 289.078125 213.363281 C 289.410156 212.972656 289.746094 212.578125 290.089844 212.175781 C 291.640625 210.347656 293.152344 208.503906 294.628906 206.613281 C 304.816406 193.566406 320.230469 184.167969 336.761719 181.808594 C 340.164062 181.453125 343.566406 181.367188 346.984375 181.320312 C 347.6875 181.304688 348.386719 181.289062 349.113281 181.269531 C 356.945312 181.296875 362.566406 183.90625 368.210938 189.273438 C 374.535156 196.457031 375.632812 203.828125 375.148438 213.046875 C 374.359375 221.222656 368.828125 226.707031 363.28125 232.179688 C 362.683594 232.777344 362.085938 233.375 361.472656 233.988281 C 360.378906 235.082031 359.28125 236.167969 358.183594 237.253906 C 356.796875 238.660156 355.5 240.105469 354.21875 241.609375 C 352.101562 244.078125 349.847656 246.375 347.535156 248.65625 C 345.265625 250.894531 343.050781 253.140625 340.988281 255.570312 C 338.777344 258.160156 336.40625 260.546875 333.984375 262.941406 C 331.578125 265.316406 329.21875 267.683594 327.027344 270.265625 C 324.480469 273.257812 321.695312 275.984375 318.898438 278.742188 C 316.441406 281.179688 314.136719 283.695312 311.894531 286.335938 C 309.84375 288.628906 307.640625 290.761719 305.453125 292.921875 C 303.542969 294.816406 301.714844 296.734375 299.972656 298.78125 C 297.761719 301.375 295.390625 303.761719 292.96875 306.152344 C 290.5625 308.527344 288.203125 310.898438 286.011719 313.476562 C 283.464844 316.472656 280.679688 319.195312 277.882812 321.957031 C 275.425781 324.394531 273.121094 326.910156 270.878906 329.546875 C 268.828125 331.839844 266.625 333.976562 264.433594 336.132812 C 262.519531 338.03125 260.714844 339.960938 259.003906 342.042969 C 242.90625 360.730469 215.484375 372.996094 191.160156 375 C 187.859375 375.117188 184.558594 375.136719 181.253906 375.148438 C 180.300781 375.152344 179.347656 375.15625 178.363281 375.160156 C 176.347656 375.167969 174.332031 375.171875 172.316406 375.175781 C 170.273438 375.179688 168.230469 375.1875 166.191406 375.207031 C 144.492188 375.378906 144.492188 375.378906 134.03125 372.804688 C 133.273438 372.621094 133.273438 372.621094 132.5 372.4375 C 118.777344 369.125 105.363281 362.800781 94.480469 353.761719 C 94.070312 353.417969 93.65625 353.078125 93.230469 352.726562 C 85.28125 346.074219 85.28125 346.074219 84.226562 341.308594 C 84.9375 338.476562 85.414062 337.832031 87.890625 336.183594 C 90.359375 335.652344 91.394531 335.484375 93.75 336.183594 C 95.835938 337.789062 97.65625 339.578125 99.542969 341.414062 C 114.214844 355.386719 136.507812 362.863281 156.457031 362.71875 C 157.234375 362.71875 158.011719 362.71875 158.808594 362.714844 C 160.4375 362.714844 162.066406 362.707031 163.695312 362.699219 C 166.15625 362.6875 168.617188 362.683594 171.082031 362.683594 C 187.667969 362.679688 187.667969 362.679688 203.933594 359.710938 C 205.152344 359.378906 205.152344 359.378906 206.394531 359.039062 C 223.800781 354.011719 237.65625 345.015625 250.488281 332.519531 C 251.109375 331.921875 251.730469 331.320312 252.367188 330.703125 C 254.851562 328.261719 257.242188 325.78125 259.507812 323.136719 C 261.75 320.515625 264.148438 318.09375 266.601562 315.675781 C 269.457031 312.851562 272.175781 309.988281 274.777344 306.929688 C 276.824219 304.632812 279.027344 302.5 281.21875 300.339844 C 283.125 298.445312 284.957031 296.527344 286.699219 294.480469 C 288.90625 291.886719 291.28125 289.5 293.699219 287.109375 C 296.105469 284.734375 298.46875 282.363281 300.660156 279.785156 C 303.203125 276.789062 305.992188 274.066406 308.785156 271.308594 C 311.242188 268.867188 313.546875 266.351562 315.792969 263.714844 C 317.839844 261.421875 320.042969 259.285156 322.234375 257.128906 C 324.140625 255.234375 325.972656 253.3125 327.714844 251.265625 C 329.921875 248.675781 332.296875 246.289062 334.714844 243.898438 C 337.121094 241.519531 339.484375 239.152344 341.675781 236.574219 C 343.867188 233.992188 346.226562 231.625 348.632812 229.25 C 351.964844 225.953125 355.148438 222.589844 358.152344 218.996094 C 358.714844 218.359375 359.273438 217.726562 359.847656 217.070312 C 362.277344 213.652344 362.90625 210.167969 362.84375 206.042969 C 362.402344 203.507812 361.183594 201.734375 359.6875 199.679688 C 358.886719 198.488281 358.886719 198.488281 358.886719 197.023438 C 358.359375 196.808594 357.828125 196.597656 357.285156 196.378906 C 356.042969 195.882812 354.8125 195.363281 353.601562 194.789062 C 343.59375 191.363281 331.816406 195.347656 322.769531 199.769531 C 311.917969 205.351562 304.445312 214.101562 296.902344 223.457031 C 294.925781 225.878906 292.902344 228.253906 290.863281 230.621094 C 287.90625 234.058594 284.957031 237.503906 282.027344 240.96875 C 281.707031 241.34375 281.390625 241.722656 281.058594 242.109375 C 279.1875 244.328125 279.1875 244.328125 277.339844 246.566406 C 274.648438 249.867188 272.277344 251.839844 268.066406 252.6875 C 261.816406 253.269531 256.976562 253.007812 251.953125 249.023438 C 248.386719 245.84375 246.433594 241.621094 245.875 236.910156 C 245.769531 234.792969 245.730469 232.6875 245.722656 230.566406 C 245.71875 229.78125 245.710938 229 245.703125 228.191406 C 245.691406 226.53125 245.6875 224.871094 245.6875 223.214844 C 245.683594 220.726562 245.640625 218.246094 245.601562 215.761719 C 245.523438 205.71875 246.75 197.125 249.964844 187.621094 C 250.671875 185.480469 251.222656 183.316406 251.75 181.125 C 251.914062 180.445312 252.082031 179.765625 252.25 179.066406 C 252.488281 178.074219 252.488281 178.074219 252.730469 177.0625 C 254.070312 171.585938 255.515625 166.167969 257.15625 160.773438 C 258.503906 156.292969 259.628906 151.761719 260.742188 147.21875 C 262.101562 141.679688 263.554688 136.199219 265.214844 130.746094 C 266.558594 126.261719 267.683594 121.734375 268.796875 117.1875 C 270.15625 111.648438 271.609375 106.171875 273.269531 100.714844 C 274.839844 95.488281 276.113281 90.1875 277.414062 84.886719 C 278.527344 80.375 279.726562 75.90625 281.066406 71.457031 C 281.363281 70.460938 281.660156 69.464844 281.957031 68.46875 C 282.390625 67.003906 282.828125 65.539062 283.265625 64.078125 C 284.828125 58.175781 285.601562 50.566406 282.898438 44.953125 C 282.371094 44.113281 281.824219 43.285156 281.25 42.480469 C 280.855469 41.832031 280.464844 41.179688 280.058594 40.511719 C 275.214844 35.792969 268.945312 34.128906 262.363281 34.160156 C 258.644531 34.578125 255.851562 36.191406 252.683594 38.085938 C 252.164062 38.308594 251.644531 38.527344 251.105469 38.753906 C 249.394531 39.765625 249.121094 40.695312 248.289062 42.480469 C 248.058594 42.90625 247.828125 43.335938 247.589844 43.777344 C 245.480469 47.742188 244.210938 51.777344 243.011719 56.09375 C 242.699219 57.199219 242.699219 57.199219 242.378906 58.328125 C 241.703125 60.703125 241.035156 63.082031 240.371094 65.460938 C 239.910156 67.097656 239.445312 68.738281 238.980469 70.375 C 236.46875 79.277344 234.007812 88.1875 231.644531 97.128906 C 230.160156 102.710938 228.523438 108.238281 226.800781 113.75 C 224.554688 120.960938 222.523438 128.234375 220.457031 135.5 C 218.375 142.828125 216.289062 150.15625 214.195312 157.484375 C 213.320312 160.550781 212.445312 163.621094 211.574219 166.691406 C 210.71875 169.707031 209.859375 172.71875 208.996094 175.734375 C 208.667969 176.871094 208.347656 178.007812 208.023438 179.144531 C 207.578125 180.726562 207.125 182.304688 206.667969 183.886719 C 206.414062 184.78125 206.160156 185.675781 205.898438 186.597656 C 204.007812 192.066406 204.007812 192.066406 201.414062 193.359375 C 198.570312 193.738281 197.410156 193.648438 195.074219 191.917969 C 192.761719 188.925781 192.851562 186.863281 192.90625 183.183594 C 192.898438 182.199219 192.898438 182.199219 192.890625 181.195312 C 192.882812 178.996094 192.894531 176.796875 192.910156 174.59375 C 192.910156 173.015625 192.90625 171.441406 192.898438 169.863281 C 192.890625 166.464844 192.890625 163.066406 192.902344 159.671875 C 192.921875 154.296875 192.914062 148.921875 192.902344 143.550781 C 192.882812 134.078125 192.886719 124.605469 192.894531 115.136719 C 192.910156 100.886719 192.90625 86.636719 192.882812 72.386719 C 192.875 67.046875 192.875 61.707031 192.890625 56.367188 C 192.894531 53.039062 192.890625 49.714844 192.886719 46.386719 C 192.886719 44.847656 192.890625 43.308594 192.894531 41.769531 C 192.90625 39.664062 192.902344 37.554688 192.894531 35.449219 C 192.898438 34.84375 192.90625 34.238281 192.914062 33.617188 C 192.863281 27.730469 191.484375 22.394531 187.414062 17.996094 C 182.351562 13.773438 176.539062 12.128906 170.070312 12.207031 C 164.210938 12.820312 160.125 15.898438 156.351562 20.246094 C 153.449219 24.890625 152.753906 29.121094 152.792969 34.46875 C 152.789062 35.109375 152.785156 35.753906 152.78125 36.414062 C 152.773438 38.558594 152.777344 40.699219 152.78125 42.839844 C 152.777344 44.378906 152.773438 45.917969 152.765625 47.460938 C 152.757812 50.769531 152.75 54.078125 152.753906 57.390625 C 152.753906 62.621094 152.738281 67.851562 152.722656 73.085938 C 152.695312 83.238281 152.679688 93.394531 152.667969 103.550781 C 152.652344 116.488281 152.625 129.425781 152.589844 142.367188 C 152.574219 147.570312 152.566406 152.773438 152.566406 157.976562 C 152.566406 161.207031 152.554688 164.4375 152.546875 167.667969 C 152.542969 169.171875 152.542969 170.671875 152.546875 172.171875 C 152.546875 174.21875 152.542969 176.261719 152.53125 178.308594 C 152.535156 178.90625 152.539062 179.5 152.542969 180.117188 C 152.503906 185.214844 152.503906 185.214844 150.878906 187.5 C 148.703125 189 146.898438 189.292969 144.285156 188.964844 C 142.4375 188.148438 141.601562 187.347656 140.816406 185.472656 C 139.339844 180.949219 138.167969 176.378906 137.054688 171.753906 C 135.789062 166.589844 134.484375 161.457031 132.933594 156.371094 C 131.191406 150.652344 129.765625 144.867188 128.34375 139.058594 C 127.285156 134.785156 126.160156 130.554688 124.878906 126.34375 C 123.136719 120.621094 121.710938 114.835938 120.285156 109.03125 C 119.230469 104.757812 118.101562 100.523438 116.820312 96.3125 C 115.308594 91.347656 114.03125 86.339844 112.792969 81.300781 C 111.265625 75.089844 109.644531 68.933594 107.769531 62.824219 C 107.222656 61.019531 106.710938 59.207031 106.234375 57.386719 C 104.570312 51.214844 102.535156 47.03125 97.0625 43.511719 C 92.152344 40.964844 87.503906 40.03125 82.03125 41.015625 C 75.203125 43.421875 71.195312 46.484375 67.886719 52.871094 C 65.230469 59.453125 66.78125 66.167969 68.574219 72.785156 C 68.769531 73.542969 68.96875 74.304688 69.171875 75.089844 C 70.640625 80.683594 72.222656 86.25 73.84375 91.804688 C 75.261719 96.695312 76.507812 101.609375 77.714844 106.554688 C 78.804688 110.984375 80.023438 115.371094 81.296875 119.75 C 82.921875 125.332031 84.390625 130.933594 85.769531 136.582031 C 86.863281 141.015625 88.082031 145.398438 89.355469 149.78125 C 90.804688 154.761719 92.152344 159.753906 93.382812 164.796875 C 94.636719 169.921875 96 175.011719 97.457031 180.085938 C 97.640625 180.726562 97.824219 181.371094 98.015625 182.03125 C 98.839844 184.886719 99.675781 187.734375 100.566406 190.566406 C 100.839844 191.457031 101.113281 192.351562 101.394531 193.269531 C 101.636719 194.019531 101.875 194.773438 102.125 195.550781 C 102.625 198.210938 102.394531 200.246094 101.804688 202.882812 C 100.25 204.710938 100.25 204.710938 98.144531 205.8125 C 95.535156 205.855469 95.535156 205.855469 93.015625 205.078125 C 89.910156 201.847656 87.941406 197.757812 85.785156 193.863281 C 82.4375 187.878906 79.046875 181.925781 75.578125 176.011719 C 71.828125 169.609375 68.125 163.183594 64.453125 156.738281 C 59.492188 148.039062 54.5 139.363281 49.414062 130.734375 C 48.457031 129.101562 47.503906 127.464844 46.554688 125.828125 C 43.003906 119.777344 39.917969 115.730469 32.957031 113.527344 C 27.339844 112.664062 22.964844 113.984375 18.308594 117.1875 C 15.097656 120.101562 12.722656 123.195312 12.292969 127.597656 C 11.992188 135.472656 15.242188 141.304688 19.226562 147.902344 C 20.15625 149.46875 21.082031 151.035156 22.007812 152.597656 C 22.488281 153.402344 22.964844 154.207031 23.460938 155.035156 C 25.789062 158.96875 28.070312 162.933594 30.351562 166.902344 C 33.136719 171.742188 35.925781 176.582031 38.742188 181.410156 C 56.183594 211.351562 66.964844 238.898438 67.757812 273.949219 C 67.96875 280.8125 69.011719 287.324219 70.429688 294.03125 C 71.003906 296.898438 71.285156 299.558594 71.042969 302.492188 C 69.253906 304.96875 68.195312 305.984375 65.183594 306.609375 C 62.1875 305.984375 61.265625 304.847656 59.324219 302.492188 C 58.523438 300.488281 58.089844 298.46875 57.679688 296.355469 C 57.5625 295.820312 57.445312 295.289062 57.324219 294.738281 C 56.222656 289.597656 55.585938 284.519531 55.375 279.261719 C 55.328125 278.167969 55.277344 277.074219 55.226562 275.980469 C 55.203125 275.414062 55.175781 274.84375 55.152344 274.261719 C 53.515625 239.320312 42.21875 212.523438 24.714844 182.679688 C 21.277344 176.808594 17.90625 170.898438 14.539062 164.984375 C 12.246094 160.957031 9.949219 156.933594 7.609375 152.933594 C 7.203125 152.234375 6.796875 151.535156 6.378906 150.816406 C 5.632812 149.53125 4.878906 148.246094 4.121094 146.964844 C -0.402344 139.164062 -1.46875 130.363281 0.503906 121.523438 C 1.183594 119.722656 1.964844 118.121094 2.929688 116.457031 C 3.238281 115.886719 3.550781 115.320312 3.871094 114.734375 C 8.007812 107.84375 14.285156 103.832031 21.816406 101.378906 C 30.75 99.691406 38.898438 101.289062 46.644531 105.925781 C 53.398438 110.789062 57.035156 117.9375 60.898438 125.085938 C 63.289062 129.492188 65.8125 133.824219 68.34375 138.152344 C 68.773438 138.890625 69.203125 139.628906 69.644531 140.386719 C 72 144.417969 74.421875 148.394531 76.902344 152.34375 C 76.738281 151.734375 76.574219 151.121094 76.402344 150.492188 C 75.59375 147.519531 74.789062 144.542969 73.984375 141.570312 C 73.832031 141.015625 73.683594 140.457031 73.527344 139.886719 C 71.699219 133.148438 69.878906 126.40625 68.0625 119.664062 C 67.894531 119.046875 67.730469 118.429688 67.558594 117.792969 C 66.886719 115.308594 66.21875 112.824219 65.550781 110.339844 C 63.757812 103.683594 61.957031 97.03125 60.109375 90.390625 C 59.335938 87.609375 58.574219 84.828125 57.820312 82.042969 C 57.488281 80.835938 57.148438 79.632812 56.808594 78.433594 C 53.730469 67.65625 51.929688 55.859375 57.128906 45.410156 C 61.777344 37.808594 68.660156 31.660156 77.242188 29.074219 C 87.496094 27.058594 97.234375 28.253906 106.019531 34.105469 C 112.050781 38.851562 115.527344 44.160156 117.847656 51.394531 C 118.035156 51.96875 118.222656 52.542969 118.414062 53.136719 C 120.5 59.625 122.246094 66.199219 123.96875 72.792969 C 124.316406 74.109375 124.664062 75.429688 125.011719 76.746094 C 125.917969 80.175781 126.816406 83.609375 127.71875 87.039062 C 128.628906 90.511719 129.542969 93.984375 130.460938 97.453125 C 131.652344 101.972656 132.839844 106.492188 134.027344 111.011719 C 135.722656 117.46875 137.433594 123.921875 139.160156 130.371094 C 139.164062 129.871094 139.164062 129.371094 139.167969 128.855469 C 139.226562 116.632812 139.292969 104.410156 139.371094 92.1875 C 139.40625 86.277344 139.441406 80.367188 139.46875 74.457031 C 139.492188 69.300781 139.523438 64.148438 139.558594 58.992188 C 139.574219 56.265625 139.59375 53.539062 139.601562 50.8125 C 139.613281 47.757812 139.636719 44.707031 139.660156 41.652344 C 139.660156 40.316406 139.660156 40.316406 139.664062 38.953125 C 139.769531 28.027344 141.074219 17.519531 148.867188 9.21875 C 159.976562 -0.871094 176.609375 -4.1875 189.9375 3.972656 Z M 189.9375 3.972656 " fill-opacity="1" fill-rule="nonzero"/><path fill="#2d9a80" d="M 238.722656 241.789062 C 240.234375 243.894531 240.234375 243.894531 240.691406 246.09375 C 240.039062 249.230469 239.222656 250.117188 236.574219 251.953125 C 234.539062 252.417969 232.507812 252.675781 230.441406 252.953125 C 217.144531 255.285156 204.375 261.648438 194.09375 270.261719 C 193.355469 270.882812 192.617188 271.5 191.855469 272.136719 C 179.421875 282.871094 170.632812 297.449219 166.992188 313.476562 C 166.742188 314.246094 166.492188 315.015625 166.238281 315.8125 C 165.140625 320.125 164.984375 324.488281 164.707031 328.917969 C 164.203125 335.554688 164.203125 335.554688 161.867188 338.378906 C 159.808594 339.40625 158.285156 339.292969 156.007812 339.109375 C 153.710938 337.808594 153.191406 337.261719 152.34375 334.714844 C 150.878906 319.992188 155.082031 304.511719 161.867188 291.503906 C 162.089844 291.066406 162.316406 290.628906 162.546875 290.179688 C 173.613281 268.878906 193.128906 251.328125 216.101562 243.753906 C 219.066406 242.945312 222.042969 242.207031 225.035156 241.515625 C 225.589844 241.386719 226.144531 241.257812 226.71875 241.125 C 235.242188 239.273438 235.242188 239.273438 238.722656 241.789062 Z M 238.722656 241.789062 " fill-opacity="1" fill-rule="nonzero"/><path fill="#2d9a80" d="M 76.902344 315.671875 C 79.582031 317.925781 81.839844 320.074219 82.304688 323.640625 C 81.964844 326.484375 81.140625 327.605469 79.101562 329.589844 C 77.773438 330.320312 77.773438 330.320312 76.171875 330.320312 C 73.40625 329.449219 71.5625 328.710938 69.625 326.523438 C 68.550781 323.671875 68.601562 321.648438 68.847656 318.601562 C 70.980469 315.40625 73.21875 315.230469 76.902344 315.671875 Z M 76.902344 315.671875 " fill-opacity="1" fill-rule="nonzero"/></svg>