<?xml version="1.0" encoding="UTF-8"?>
<svg version="1.1" xmlns="http://www.w3.org/2000/svg" width="512" height="512">
<path d="M0 0 C10.60526076 7.60043687 17.47532969 16.96523496 20.671875 29.57421875 C20.93358803 32.88748074 20.93358803 32.88748074 20.9503479 36.37632751 C20.9561403 37.02342621 20.9619327 37.6705249 20.96790063 38.33723265 C20.98477872 40.48520895 20.98776647 42.63296883 20.99072266 44.78100586 C21.00002928 46.32882201 21.01019904 47.87663318 21.02116394 49.42443848 C21.04839525 53.61189639 21.06359292 57.79932079 21.07659197 61.98684382 C21.09225264 66.36842984 21.11903348 70.74994773 21.1446228 75.13148499 C21.19135866 83.42210412 21.22812788 91.71273615 21.26129568 100.00341946 C21.29955379 109.44479862 21.34895428 118.88610926 21.39927983 128.32743061 C21.50252244 147.74297647 21.59180775 167.15856418 21.671875 186.57421875 C21.92641921 185.68054863 21.92641921 185.68054863 22.18610573 184.76882458 C26.34101719 170.1822071 30.49895677 155.5964564 34.66015053 141.01163006 C36.67251002 133.9581177 38.68389335 126.90432988 40.69287109 119.84985352 C42.44662582 113.69159642 44.2023217 107.53389643 45.96022356 101.37682182 C46.88846404 98.12540303 47.81552538 94.87366004 48.74083328 91.62140465 C52.06180024 79.95093889 55.38385983 68.28022225 58.96630859 56.68676758 C59.19396723 55.93494296 59.42162586 55.18311834 59.65618324 54.40851116 C63.11405575 43.42001934 70.40382689 35.05124525 80.1640625 29.0390625 C91.02677233 23.5110069 103.98455298 21.92849442 115.671875 25.57421875 C128.51332628 30.66869614 137.60869669 37.90009835 143.671875 50.57421875 C149.12908168 64.22753207 146.65213419 77.72543518 142.84375 91.4296875 C142.43415345 92.95449712 142.0262195 94.47975417 141.61981201 96.00541687 C140.75929191 99.22492253 139.88890029 102.44151703 139.01049805 105.65618896 C137.68772653 110.50255323 136.39587367 115.35676243 135.11132812 120.21337891 C133.11013873 127.77210723 131.09226464 135.3262251 129.06626987 142.87833977 C127.60072445 148.34432804 126.14323794 153.81239322 124.69170094 159.28211784 C119.71134314 178.045536 114.66172151 196.77829131 109.25985336 215.42526627 C91.02252856 267.21033692 91.02252856 267.21033692 95.06054688 319.43725586 C96.56166969 321.81166203 96.56166969 321.81166203 99.484375 322.69921875 C103.00759616 322.56105321 104.45421072 321.79582072 106.99609375 319.3984375 C109.85087983 316.29077992 112.48953157 313.02089804 115.125 309.7265625 C117.8566827 306.31841192 120.69523195 303.00714299 123.546875 299.69921875 C124.57173838 298.50791899 125.59647759 297.3165124 126.62109375 296.125 C127.38172119 295.24062256 127.38172119 295.24062256 128.15771484 294.33837891 C130.56837227 291.52970258 132.96592101 288.71005883 135.359375 285.88671875 C135.81497803 285.35151611 136.27058105 284.81631348 136.73999023 284.26489258 C138.85781752 281.76665844 140.92318918 279.25184332 142.9375 276.66796875 C156.84618325 258.8568492 177.89084344 246.02360511 200.46191406 242.80566406 C205.10795851 242.31909202 209.753404 242.20123748 214.421875 242.13671875 C215.38013184 242.11440186 216.33838867 242.09208496 217.32568359 242.0690918 C228.02097725 242.10322375 235.69699745 245.66691396 243.40234375 252.99609375 C252.0366432 262.80442014 253.53830474 272.8688263 252.87646484 285.45458984 C251.79925915 296.61485219 244.24698719 304.10254822 236.671875 311.57421875 C235.8571875 312.39019531 235.0425 313.20617187 234.203125 314.046875 C232.71029948 315.53714432 231.21306342 317.02301179 229.7109375 318.50390625 C227.8179815 320.42587307 226.04846337 322.39878118 224.296875 324.44921875 C221.40972681 327.8197964 218.32940122 330.95925396 215.171875 334.07421875 C212.07695259 337.12759161 209.05253183 340.19745607 206.234375 343.51171875 C203.21834673 347.05100975 199.97739599 350.3091632 196.671875 353.57421875 C193.38719509 356.81873751 190.16453496 360.05344233 187.171875 363.57421875 C183.6964395 367.6629664 179.89087263 371.38238559 176.07641602 375.15014648 C172.72126606 378.48004205 169.57462048 381.91353274 166.51171875 385.515625 C163.71351708 388.64652156 160.70413844 391.5625157 157.71630859 394.51025391 C155.11066761 397.09444193 152.61134391 399.71631033 150.234375 402.51171875 C147.21834673 406.05100975 143.97739599 409.3091632 140.671875 412.57421875 C137.38719509 415.81873751 134.16453496 419.05344233 131.171875 422.57421875 C127.6964395 426.6629664 123.89087263 430.38238559 120.07641602 434.15014648 C116.72126606 437.48004205 113.57462048 440.91353274 110.51171875 444.515625 C107.71360342 447.64642495 104.70637515 450.56490383 101.71411133 453.50805664 C99.09701593 456.09735353 96.6368062 458.73370525 94.296875 461.57421875 C72.31952636 487.0929411 34.87808099 503.8391051 1.671875 506.57421875 C-2.83709805 506.73661237 -7.34385662 506.76187702 -11.85546875 506.77734375 C-13.15778946 506.78304382 -14.46011017 506.7887439 -15.80189514 506.7946167 C-18.55453881 506.805075 -21.30715376 506.81094994 -24.05981445 506.81445312 C-26.84770929 506.81882033 -29.63529161 506.83265288 -32.4230957 506.85546875 C-62.04765204 507.09311322 -62.04765204 507.09311322 -76.328125 503.57421875 C-77.36334541 503.32621269 -77.36334541 503.32621269 -78.41947937 503.07319641 C-97.15845698 498.55477489 -115.47080274 489.92050966 -130.328125 477.57421875 C-130.89160645 477.10951172 -131.45508789 476.64480469 -132.03564453 476.16601562 C-142.91305108 467.06219916 -142.91305108 467.06219916 -144.328125 460.57421875 C-144.06 459.64609375 -143.791875 458.71796875 -143.515625 457.76171875 C-143.24299101 453.12694085 -145.25791597 450.89786001 -148.15625 447.4140625 C-151.16820673 444.86256678 -153.40769906 444.83740498 -157.2421875 444.8046875 C-159.328125 444.57421875 -159.328125 444.57421875 -162.328125 442.13671875 C-165.51984989 438.04732124 -165.87016678 434.67308638 -165.328125 429.57421875 C-164.95558594 428.76984375 -164.58304687 427.96546875 -164.19921875 427.13671875 C-163.06615911 423.80359263 -163.74697841 422.53218572 -165.203125 419.38671875 C-167.328125 414.69342405 -167.328125 414.69342405 -167.328125 412.57421875 C-168.215 412.67734375 -169.101875 412.78046875 -170.015625 412.88671875 C-173.328125 412.57421875 -173.328125 412.57421875 -175.89453125 410.578125 C-178.9070038 406.85967975 -179.67449429 403.8141899 -180.578125 399.19921875 C-180.73796875 398.46960938 -180.8978125 397.74 -181.0625 396.98828125 C-182.56631179 389.97049288 -183.43370416 383.03669927 -183.72265625 375.859375 C-183.78838377 374.36527124 -183.85515646 372.87121317 -183.92285156 371.37719727 C-183.95769653 370.603367 -183.9925415 369.82953674 -184.02844238 369.03225708 C-186.26253042 321.32572594 -201.68768654 284.73846949 -225.58203125 243.9921875 C-230.27488809 235.97444719 -234.88105849 227.90745666 -239.47583008 219.83325195 C-242.60569791 214.33420862 -245.74632756 208.84268712 -248.9375 203.37890625 C-249.49163574 202.4252417 -250.04577148 201.47157715 -250.61669922 200.48901367 C-251.63817257 198.73295353 -252.66540164 196.98022237 -253.69970703 195.23168945 C-259.87526016 184.57792528 -261.33559385 172.56220429 -258.640625 160.49609375 C-257.71138849 158.033617 -256.64685025 155.85014955 -255.328125 153.57421875 C-254.90402344 152.79820312 -254.47992188 152.0221875 -254.04296875 151.22265625 C-248.39657599 141.81724435 -239.82510017 136.33851853 -229.5390625 132.9921875 C-217.34334635 130.68663692 -206.21780504 132.86730144 -195.640625 139.19921875 C-186.42183925 145.83543686 -181.45807334 155.59598264 -176.18359375 165.35546875 C-172.91924846 171.37619021 -169.47192437 177.28719921 -166.015625 183.19921875 C-165.42894043 184.2061377 -164.84225586 185.21305664 -164.23779297 186.25048828 C-161.02210928 191.75010604 -157.71972394 197.18164552 -154.328125 202.57421875 C-154.5542598 201.7404068 -154.78039459 200.90659485 -155.01338196 200.04751587 C-156.11466383 195.9861785 -157.21561104 191.92475055 -158.31640625 187.86328125 C-158.52191542 187.10510983 -158.72742458 186.3469384 -158.9391613 185.56579208 C-161.43308959 176.36397517 -163.92222695 167.16089108 -166.40136719 157.95507812 C-166.62854998 157.11159946 -166.85573277 156.2681208 -167.08979988 155.39908218 C-168.00326796 152.00746163 -168.9167294 148.61583938 -169.82969284 145.22408295 C-172.27622338 136.13685988 -174.73628437 127.05427442 -177.25920105 117.98788452 C-178.31368434 114.19185115 -179.35207753 110.3915516 -180.38656616 106.59002686 C-180.8388771 104.94457391 -181.29903783 103.30125351 -181.76797485 101.66046143 C-185.96799002 86.94890437 -188.42809985 70.83970667 -181.328125 56.57421875 C-174.98315388 46.19627969 -165.58541792 37.79983358 -153.8671875 34.26953125 C-139.86773906 31.51908774 -126.56901222 33.14826174 -114.578125 41.13671875 C-106.34213401 47.61885842 -101.59442345 54.86632442 -98.42626953 64.74536133 C-98.17038622 65.52937978 -97.91450291 66.31339823 -97.65086555 67.12117481 C-94.80490357 75.98193863 -92.42126365 84.95890072 -90.0703125 93.9609375 C-89.59573952 95.76029304 -89.12064034 97.55950988 -88.64505005 99.3585968 C-87.4085492 104.04155991 -86.17892823 108.7263008 -84.95092773 113.41149902 C-83.70708076 118.15237122 -82.45683947 122.8915559 -81.20703125 127.63085938 C-79.58055932 133.8001763 -77.95627282 139.97005632 -76.33593941 146.14098835 C-74.0207437 154.95766488 -71.6847621 163.76852255 -69.328125 172.57421875 C-69.32481485 171.8904482 -69.32150471 171.20667765 -69.31809425 170.50218678 C-69.23664809 153.81549535 -69.14448613 137.12890031 -69.04059792 120.44233418 C-68.99061177 112.37262656 -68.94416805 104.30292839 -68.90625 96.2331543 C-68.87316692 89.19432182 -68.83324744 82.15556584 -68.78533494 75.11681813 C-68.76023096 71.39460228 -68.73840353 67.67243612 -68.72478104 63.95015907 C-68.70939388 59.78087109 -68.67873453 55.6118224 -68.64697266 51.44262695 C-68.64373238 49.61921028 -68.64373238 49.61921028 -68.64042664 47.75895691 C-68.49607763 32.84002768 -66.71461629 18.49148869 -56.07421875 7.16015625 C-40.90647165 -6.61636573 -18.1950474 -11.1429401 0 0 Z " fill="#8AC3FF" transform="translate(259.328125,5.42578125)"/>
<path d="M0 0 C10.60526076 7.60043687 17.47532969 16.96523496 20.671875 29.57421875 C20.93358803 32.88748074 20.93358803 32.88748074 20.9503479 36.37632751 C20.9561403 37.02342621 20.9619327 37.6705249 20.96790063 38.33723265 C20.98477872 40.48520895 20.98776647 42.63296883 20.99072266 44.78100586 C21.00002928 46.32882201 21.01019904 47.87663318 21.02116394 49.42443848 C21.04839525 53.61189639 21.06359292 57.79932079 21.07659197 61.98684382 C21.09225264 66.36842984 21.11903348 70.74994773 21.1446228 75.13148499 C21.19135866 83.42210412 21.22812788 91.71273615 21.26129568 100.00341946 C21.29955379 109.44479862 21.34895428 118.88610926 21.39927983 128.32743061 C21.50252244 147.74297647 21.59180775 167.15856418 21.671875 186.57421875 C21.92641921 185.68054863 21.92641921 185.68054863 22.18610573 184.76882458 C26.34101719 170.1822071 30.49895677 155.5964564 34.66015053 141.01163006 C36.67251002 133.9581177 38.68389335 126.90432988 40.69287109 119.84985352 C42.44662582 113.69159642 44.2023217 107.53389643 45.96022356 101.37682182 C46.88846404 98.12540303 47.81552538 94.87366004 48.74083328 91.62140465 C52.06180024 79.95093889 55.38385983 68.28022225 58.96630859 56.68676758 C59.19396723 55.93494296 59.42162586 55.18311834 59.65618324 54.40851116 C63.11405575 43.42001934 70.40382689 35.05124525 80.1640625 29.0390625 C91.02677233 23.5110069 103.98455298 21.92849442 115.671875 25.57421875 C128.51332628 30.66869614 137.60869669 37.90009835 143.671875 50.57421875 C149.12908168 64.22753207 146.65213419 77.72543518 142.84375 91.4296875 C142.43415345 92.95449712 142.0262195 94.47975417 141.61981201 96.00541687 C140.75929191 99.22492253 139.88890029 102.44151703 139.01049805 105.65618896 C137.68772653 110.50255323 136.39587367 115.35676243 135.11132812 120.21337891 C133.11013873 127.77210723 131.09226464 135.3262251 129.06626987 142.87833977 C127.60072445 148.34432804 126.14323794 153.81239322 124.69170094 159.28211784 C119.71134314 178.045536 114.66172151 196.77829131 109.25985336 215.42526627 C91.02252856 267.21033692 91.02252856 267.21033692 95.06054688 319.43725586 C96.56166969 321.81166203 96.56166969 321.81166203 99.484375 322.69921875 C103.00759616 322.56105321 104.45421072 321.79582072 106.99609375 319.3984375 C109.85087983 316.29077992 112.48953157 313.02089804 115.125 309.7265625 C117.8566827 306.31841192 120.69523195 303.00714299 123.546875 299.69921875 C124.57173838 298.50791899 125.59647759 297.3165124 126.62109375 296.125 C127.38172119 295.24062256 127.38172119 295.24062256 128.15771484 294.33837891 C130.56837227 291.52970258 132.96592101 288.71005883 135.359375 285.88671875 C135.81497803 285.35151611 136.27058105 284.81631348 136.73999023 284.26489258 C138.85781752 281.76665844 140.92318918 279.25184332 142.9375 276.66796875 C156.84618325 258.8568492 177.89084344 246.02360511 200.46191406 242.80566406 C205.10795851 242.31909202 209.753404 242.20123748 214.421875 242.13671875 C215.38013184 242.11440186 216.33838867 242.09208496 217.32568359 242.0690918 C228.02097725 242.10322375 235.69699745 245.66691396 243.40234375 252.99609375 C252.0366432 262.80442014 253.53830474 272.8688263 252.87646484 285.45458984 C251.79925915 296.61485219 244.24698719 304.10254822 236.671875 311.57421875 C235.8571875 312.39019531 235.0425 313.20617187 234.203125 314.046875 C232.71029948 315.53714432 231.21306342 317.02301179 229.7109375 318.50390625 C227.8179815 320.42587307 226.04846337 322.39878118 224.296875 324.44921875 C221.40972681 327.8197964 218.32940122 330.95925396 215.171875 334.07421875 C212.07695259 337.12759161 209.05253183 340.19745607 206.234375 343.51171875 C203.21834673 347.05100975 199.97739599 350.3091632 196.671875 353.57421875 C193.38719509 356.81873751 190.16453496 360.05344233 187.171875 363.57421875 C183.6964395 367.6629664 179.89087263 371.38238559 176.07641602 375.15014648 C172.72126606 378.48004205 169.57462048 381.91353274 166.51171875 385.515625 C163.71351708 388.64652156 160.70413844 391.5625157 157.71630859 394.51025391 C155.11066761 397.09444193 152.61134391 399.71631033 150.234375 402.51171875 C147.21834673 406.05100975 143.97739599 409.3091632 140.671875 412.57421875 C137.38719509 415.81873751 134.16453496 419.05344233 131.171875 422.57421875 C127.6964395 426.6629664 123.89087263 430.38238559 120.07641602 434.15014648 C116.72126606 437.48004205 113.57462048 440.91353274 110.51171875 444.515625 C107.71360342 447.64642495 104.70637515 450.56490383 101.71411133 453.50805664 C99.09701593 456.09735353 96.6368062 458.73370525 94.296875 461.57421875 C72.31952636 487.0929411 34.87808099 503.8391051 1.671875 506.57421875 C-2.83709805 506.73661237 -7.34385662 506.76187702 -11.85546875 506.77734375 C-13.15778946 506.78304382 -14.46011017 506.7887439 -15.80189514 506.7946167 C-18.55453881 506.805075 -21.30715376 506.81094994 -24.05981445 506.81445312 C-26.84770929 506.81882033 -29.63529161 506.83265288 -32.4230957 506.85546875 C-62.04765204 507.09311322 -62.04765204 507.09311322 -76.328125 503.57421875 C-77.36334541 503.32621269 -77.36334541 503.32621269 -78.41947937 503.07319641 C-97.15845698 498.55477489 -115.47080274 489.92050966 -130.328125 477.57421875 C-130.89160645 477.10951172 -131.45508789 476.64480469 -132.03564453 476.16601562 C-142.88879318 467.08250174 -142.88879318 467.08250174 -144.328125 460.57421875 C-143.3614794 456.70763635 -142.71076802 455.8293141 -139.328125 453.57421875 C-135.95771213 452.85198742 -134.54440495 452.62164332 -131.328125 453.57421875 C-128.481684 455.76939405 -125.99457083 458.21283659 -123.41796875 460.71875 C-103.38667535 479.7927843 -72.95070124 490.00282971 -45.7109375 489.8046875 C-44.65131805 489.80422928 -43.59169861 489.80377106 -42.49996948 489.80329895 C-40.27649809 489.80030148 -38.05302833 489.79249143 -35.82958984 489.7800293 C-32.46834675 489.7618013 -29.10738113 489.75952002 -25.74609375 489.75976562 C-3.10000653 489.75210554 -3.10000653 489.75210554 19.109375 485.69921875 C20.77274902 485.24446167 20.77274902 485.24446167 22.46972656 484.78051758 C46.23546767 477.91617372 65.15126096 465.63329686 82.671875 448.57421875 C83.51878906 447.75566406 84.36570312 446.93710937 85.23828125 446.09375 C88.62923171 442.76017603 91.89154478 439.3737291 94.984375 435.76171875 C98.04687683 432.1852306 101.32467787 428.88032076 104.671875 425.57421875 C108.57084006 421.72300586 112.28011807 417.81000135 115.83203125 413.6328125 C118.63023292 410.50191594 121.63961156 407.5859218 124.62744141 404.63818359 C127.23308239 402.05399557 129.73240609 399.43212717 132.109375 396.63671875 C135.12540327 393.09742775 138.36635401 389.8392743 141.671875 386.57421875 C144.95655491 383.32969999 148.17921504 380.09499517 151.171875 376.57421875 C154.6473105 372.4854711 158.45287737 368.76605191 162.26733398 364.99829102 C165.62248394 361.66839545 168.76912952 358.23490476 171.83203125 354.6328125 C174.63023292 351.50191594 177.63961156 348.5859218 180.62744141 345.63818359 C183.23308239 343.05399557 185.73240609 340.43212717 188.109375 337.63671875 C191.12540327 334.09742775 194.36635401 330.8392743 197.671875 327.57421875 C200.95655491 324.32969999 204.17921504 321.09499517 207.171875 317.57421875 C210.16456179 314.05341076 213.38740549 310.81898919 216.671875 307.57421875 C221.22064458 303.07535069 225.56542849 298.48585085 229.671875 293.57421875 C230.435 292.70796875 231.198125 291.84171875 231.984375 290.94921875 C235.30174629 286.28032583 236.15995785 281.52082621 236.07421875 275.890625 C235.47306358 272.42960541 233.80766823 270.01093445 231.765625 267.203125 C230.671875 265.57421875 230.671875 265.57421875 230.671875 263.57421875 C229.95 263.28546875 229.228125 262.99671875 228.484375 262.69921875 C226.78946414 262.02125441 225.10743334 261.30742798 223.45703125 260.52734375 C209.79179544 255.85088156 193.71448946 261.28826534 181.359375 267.32421875 C166.54493922 274.94781537 156.34114561 286.89162099 146.04296875 299.66796875 C143.34554369 302.97420309 140.58049746 306.21556549 137.796875 309.44921875 C133.75811497 314.14259877 129.73263477 318.84625943 125.734375 323.57421875 C125.29818848 324.08968262 124.86200195 324.60514648 124.41259766 325.13623047 C121.85488891 328.16087064 121.85488891 328.16087064 119.33569336 331.2175293 C115.65774134 335.72671071 112.41869918 338.41882578 106.671875 339.57421875 C98.14080423 340.37364975 91.52985116 340.0118191 84.671875 334.57421875 C79.8023242 330.23077519 77.13335517 324.46491995 76.37081909 318.03604126 C76.2275474 315.1453928 76.17755051 312.26919684 76.16796875 309.375 C76.15798355 308.30412643 76.14799835 307.23325287 76.13771057 306.12992859 C76.12256959 303.864897 76.11548353 301.59979894 76.1159668 299.3347168 C76.10947945 295.94135382 76.05515868 292.55103973 75.99804688 289.15820312 C75.89232723 275.44974356 77.56907741 263.71580386 81.95993042 250.73983765 C82.92070089 247.81733112 83.67266712 244.86059637 84.39453125 241.87109375 C84.62011719 240.94361328 84.84570312 240.01613281 85.078125 239.06054688 C85.40296875 237.70606445 85.40296875 237.70606445 85.734375 236.32421875 C87.56453339 228.84548252 89.535119 221.44958671 91.77758789 214.08496094 C93.61506414 207.96443073 95.14949119 201.77967153 96.671875 195.57421875 C98.52679017 188.01332089 100.50970851 180.53255904 102.77734375 173.0859375 C104.61478246 166.96504293 106.14940983 160.78000316 107.671875 154.57421875 C109.52679017 147.01332089 111.50970851 139.53255904 113.77734375 132.0859375 C115.92081643 124.94557947 117.65827443 117.709618 119.43261719 110.47045898 C120.95378326 104.31150747 122.59370322 98.21143128 124.421875 92.13671875 C124.82708267 90.776119 125.23204638 89.41544656 125.63671875 88.0546875 C126.23096804 86.05666443 126.82651365 84.05902367 127.42578125 82.0625 C129.55654135 74.00137264 130.61512958 63.61199497 126.921875 55.94921875 C126.20416115 54.80335147 125.45697733 53.67500907 124.671875 52.57421875 C124.135625 51.68734375 123.599375 50.80046875 123.046875 49.88671875 C116.43065931 43.444614 107.87166786 41.17128036 98.88671875 41.21484375 C93.8088859 41.78247513 89.99526823 43.98958149 85.671875 46.57421875 C84.9603125 46.87585937 84.24875 47.1775 83.515625 47.48828125 C81.17671645 48.86585874 80.80719908 50.13830592 79.671875 52.57421875 C79.35587845 53.15781158 79.0398819 53.74140442 78.71430969 54.34268188 C75.83650924 59.7587938 74.10245253 65.26556615 72.46484375 71.16015625 C72.03544998 72.66971893 72.03544998 72.66971893 71.59738159 74.20977783 C70.6768681 77.45409854 69.76792317 80.70152908 68.859375 83.94921875 C68.22703161 86.18684184 67.59413599 88.42430894 66.96069336 90.66162109 C63.52849254 102.81248141 60.17135818 114.98070482 56.94433594 127.18774414 C54.91748804 134.80783802 52.68243966 142.3535034 50.33032227 149.87939453 C47.26252944 159.72486919 44.48923804 169.654953 41.671875 179.57421875 C38.82861181 189.58209683 35.98066036 199.5886126 33.120965 209.59180927 C31.92371367 213.78066168 30.729312 217.970288 29.54077148 222.16162109 C28.37308131 226.27899281 27.19835151 230.39429563 26.01869774 234.508255 C25.5748372 236.06082005 25.13349207 237.61410664 24.69478798 239.1681366 C24.08490601 241.32696971 23.46602059 243.4830293 22.8449707 245.63867188 C22.49666702 246.86106567 22.14836334 248.08345947 21.789505 249.34289551 C19.20819195 256.80606028 19.20819195 256.80606028 15.671875 258.57421875 C11.78615568 259.09231466 10.20457889 258.96818919 7.01134682 256.60657883 C3.85851085 252.51995815 3.97633417 249.70471934 4.05282593 244.68145752 C4.04346746 243.33700219 4.04346746 243.33700219 4.03391993 241.96538615 C4.01899505 238.96117565 4.03965166 235.95826435 4.06005859 232.95410156 C4.05651779 230.8005019 4.05074067 228.64690492 4.04289246 226.49331665 C4.03070502 221.85460259 4.03419103 217.21625613 4.04972458 212.5775528 C4.07401795 205.24029655 4.06255497 197.90336292 4.04605103 190.56610107 C4.02154075 177.63463876 4.02736066 164.70332271 4.03985596 151.77185059 C4.05842473 132.3161887 4.05357314 112.86055503 4.01982176 93.40491366 C4.00831574 86.11405513 4.01273678 78.82343104 4.02984214 71.53258562 C4.03775094 66.99138009 4.03348137 62.4502425 4.02613258 57.90903854 C4.02532366 55.80681021 4.02965576 53.70457249 4.03957558 51.6023674 C4.0524873 48.72635393 4.04689567 45.85092699 4.03695679 42.97491455 C4.04521496 42.1485321 4.05347314 41.32214964 4.06198156 40.4707253 C3.99640773 32.43294295 2.11310133 25.14985272 -3.4453125 19.14453125 C-10.35980882 13.37766917 -18.2926124 11.1316099 -27.125 11.23828125 C-35.1275935 12.07757764 -40.70450354 16.28311687 -45.85546875 22.21875 C-49.81768402 28.55619246 -50.76959648 34.33548708 -50.71339417 41.63360596 C-50.71862986 42.5114993 -50.72386556 43.38939264 -50.72925991 44.29388881 C-50.7431595 47.21722711 -50.73593583 50.14011991 -50.72875977 53.06347656 C-50.73450531 55.16651805 -50.74158932 57.26955623 -50.74990845 59.37258911 C-50.76499708 63.89166571 -50.77079794 68.41062436 -50.76938057 72.92972565 C-50.76734521 80.07258156 -50.78692345 87.21527892 -50.80955505 94.35809326 C-50.85050055 108.22412493 -50.86913383 122.09014402 -50.88572693 135.95622253 C-50.90809584 153.6209056 -50.94155121 171.28555209 -50.99292606 188.95017505 C-51.01287384 196.05419701 -51.02242936 203.15813574 -51.02387822 210.26218462 C-51.02662327 214.6742203 -51.03744122 219.08620978 -51.05038834 223.49822617 C-51.05467734 225.54772134 -51.05552177 227.59722697 -51.05271339 229.6467247 C-51.04932552 232.43884586 -51.05806541 235.23067387 -51.06983948 238.02276611 C-51.06585838 238.83832072 -51.06187729 239.65387534 -51.05777556 240.49414372 C-51.10998632 247.453327 -51.10998632 247.453327 -53.328125 250.57421875 C-56.29951909 252.62345605 -58.76332259 253.01981905 -62.328125 252.57421875 C-64.8553718 251.45925693 -65.99682342 250.36664743 -67.06640625 247.80834961 C-69.08114756 241.62976269 -70.68186814 235.39047722 -72.203125 229.07421875 C-73.93025139 222.02428597 -75.71043404 215.017355 -77.828125 208.07421875 C-80.20682593 200.2642467 -82.15277671 192.36510545 -84.09765625 184.4375 C-85.53968032 178.60284876 -87.07736336 172.82349406 -88.828125 167.07421875 C-91.20644663 159.26411741 -93.15277008 151.36513247 -95.09765625 143.4375 C-96.53968032 137.60284876 -98.07736336 131.82349406 -99.828125 126.07421875 C-101.8928225 119.29401858 -103.63916028 112.4571521 -105.328125 105.57421875 C-107.41191725 97.09742633 -109.62706479 88.69319667 -112.1875 80.34765625 C-112.93127207 77.88709521 -113.63152809 75.4128315 -114.28125 72.92578125 C-116.55721376 64.4970002 -119.33294005 58.78878572 -126.8046875 53.98046875 C-133.5078702 50.50331346 -139.85735602 49.23062382 -147.328125 50.57421875 C-156.65259607 53.85795676 -162.12448025 58.03981721 -166.640625 66.76171875 C-170.26625664 75.7469369 -168.14918894 84.91459951 -165.703125 93.94921875 C-165.43314697 94.98723633 -165.16316895 96.02525391 -164.88500977 97.09472656 C-162.87800392 104.73636206 -160.71982842 112.33448913 -158.50927734 119.91943359 C-156.57317362 126.59273167 -154.86993551 133.30619696 -153.22241211 140.05566406 C-151.73132603 146.1055187 -150.06894599 152.09180348 -148.328125 158.07421875 C-146.11034598 165.69572332 -144.10477971 173.34405269 -142.22265625 181.0546875 C-140.73148168 187.10486714 -139.06904015 193.09147987 -137.328125 199.07421875 C-135.34872095 205.8765362 -133.50838066 212.69188072 -131.828125 219.57421875 C-130.11603059 226.57641468 -128.25742255 233.52128151 -126.265625 240.44921875 C-126.01417725 241.32723145 -125.76272949 242.20524414 -125.50366211 243.10986328 C-124.38129225 247.00637875 -123.23762681 250.89277655 -122.0234375 254.76171875 C-121.64960938 255.97859375 -121.27578125 257.19546875 -120.890625 258.44921875 C-120.56191406 259.47789062 -120.23320312 260.5065625 -119.89453125 261.56640625 C-119.21039865 265.19938625 -119.52551129 267.97747922 -120.328125 271.57421875 C-122.453125 274.07421875 -122.453125 274.07421875 -125.328125 275.57421875 C-128.890625 275.63671875 -128.890625 275.63671875 -132.328125 274.57421875 C-136.57110818 270.16079861 -139.26093468 264.57955753 -142.203125 259.26171875 C-146.77151603 251.08966996 -151.40354657 242.96217452 -156.140625 234.88671875 C-161.26080539 226.1482871 -166.31417587 217.37383587 -171.328125 208.57421875 C-178.09882276 196.69746429 -184.91955845 184.85124347 -191.859375 173.07226562 C-193.16990709 170.84331543 -194.46864767 168.60794148 -195.765625 166.37109375 C-200.61344121 158.10975925 -204.82494234 152.58355992 -214.328125 149.57421875 C-221.99904482 148.39706242 -227.97297995 150.20231724 -234.328125 154.57421875 C-238.71256115 158.55101104 -241.95952333 162.77427057 -242.54296875 168.7890625 C-242.95702238 179.5378948 -238.51502032 187.50192088 -233.078125 196.51171875 C-231.81044784 198.64799258 -230.54354703 200.78472725 -229.27734375 202.921875 C-228.62427246 204.01902832 -227.97120117 205.11618164 -227.29833984 206.24658203 C-224.11632971 211.62090646 -221.00376985 217.03480446 -217.890625 222.44921875 C-214.08607658 229.0606124 -210.27690985 235.66885832 -206.43359375 242.2578125 C-182.61770242 283.14035881 -167.89787148 320.74968638 -166.81347656 368.60375977 C-166.52812808 377.97881612 -165.10227184 386.86672601 -163.16796875 396.02734375 C-162.3823578 399.93876107 -161.99749466 403.57104832 -162.328125 407.57421875 C-164.77411387 410.95543866 -166.22109059 412.34358658 -170.328125 413.19921875 C-174.42286198 412.34614855 -175.68165574 410.79380875 -178.328125 407.57421875 C-179.42538 404.84306926 -180.01363652 402.08214204 -180.578125 399.19921875 C-180.73796875 398.46960938 -180.8978125 397.74 -181.0625 396.98828125 C-182.56631179 389.97049288 -183.43370416 383.03669927 -183.72265625 375.859375 C-183.78838377 374.36527124 -183.85515646 372.87121317 -183.92285156 371.37719727 C-183.95769653 370.603367 -183.9925415 369.82953674 -184.02844238 369.03225708 C-186.26253042 321.32572594 -201.68768654 284.73846949 -225.58203125 243.9921875 C-230.27488809 235.97444719 -234.88105849 227.90745666 -239.47583008 219.83325195 C-242.60569791 214.33420862 -245.74632756 208.84268712 -248.9375 203.37890625 C-249.49163574 202.4252417 -250.04577148 201.47157715 -250.61669922 200.48901367 C-251.63817257 198.73295353 -252.66540164 196.98022237 -253.69970703 195.23168945 C-259.87526016 184.57792528 -261.33559385 172.56220429 -258.640625 160.49609375 C-257.71138849 158.033617 -256.64685025 155.85014955 -255.328125 153.57421875 C-254.90402344 152.79820312 -254.47992188 152.0221875 -254.04296875 151.22265625 C-248.39657599 141.81724435 -239.82510017 136.33851853 -229.5390625 132.9921875 C-217.34334635 130.68663692 -206.21780504 132.86730144 -195.640625 139.19921875 C-186.42183925 145.83543686 -181.45807334 155.59598264 -176.18359375 165.35546875 C-172.91924846 171.37619021 -169.47192437 177.28719921 -166.015625 183.19921875 C-165.42894043 184.2061377 -164.84225586 185.21305664 -164.23779297 186.25048828 C-161.02210928 191.75010604 -157.71972394 197.18164552 -154.328125 202.57421875 C-154.5542598 201.7404068 -154.78039459 200.90659485 -155.01338196 200.04751587 C-156.11466383 195.9861785 -157.21561104 191.92475055 -158.31640625 187.86328125 C-158.52191542 187.10510983 -158.72742458 186.3469384 -158.9391613 185.56579208 C-161.43308959 176.36397517 -163.92222695 167.16089108 -166.40136719 157.95507812 C-166.62854998 157.11159946 -166.85573277 156.2681208 -167.08979988 155.39908218 C-168.00326796 152.00746163 -168.9167294 148.61583938 -169.82969284 145.22408295 C-172.27622338 136.13685988 -174.73628437 127.05427442 -177.25920105 117.98788452 C-178.31368434 114.19185115 -179.35207753 110.3915516 -180.38656616 106.59002686 C-180.8388771 104.94457391 -181.29903783 103.30125351 -181.76797485 101.66046143 C-185.96799002 86.94890437 -188.42809985 70.83970667 -181.328125 56.57421875 C-174.98315388 46.19627969 -165.58541792 37.79983358 -153.8671875 34.26953125 C-139.86773906 31.51908774 -126.56901222 33.14826174 -114.578125 41.13671875 C-106.34213401 47.61885842 -101.59442345 54.86632442 -98.42626953 64.74536133 C-98.17038622 65.52937978 -97.91450291 66.31339823 -97.65086555 67.12117481 C-94.80490357 75.98193863 -92.42126365 84.95890072 -90.0703125 93.9609375 C-89.59573952 95.76029304 -89.12064034 97.55950988 -88.64505005 99.3585968 C-87.4085492 104.04155991 -86.17892823 108.7263008 -84.95092773 113.41149902 C-83.70708076 118.15237122 -82.45683947 122.8915559 -81.20703125 127.63085938 C-79.58055932 133.8001763 -77.95627282 139.97005632 -76.33593941 146.14098835 C-74.0207437 154.95766488 -71.6847621 163.76852255 -69.328125 172.57421875 C-69.32481485 171.8904482 -69.32150471 171.20667765 -69.31809425 170.50218678 C-69.23664809 153.81549535 -69.14448613 137.12890031 -69.04059792 120.44233418 C-68.99061177 112.37262656 -68.94416805 104.30292839 -68.90625 96.2331543 C-68.87316692 89.19432182 -68.83324744 82.15556584 -68.78533494 75.11681813 C-68.76023096 71.39460228 -68.73840353 67.67243612 -68.72478104 63.95015907 C-68.70939388 59.78087109 -68.67873453 55.6118224 -68.64697266 51.44262695 C-68.64373238 49.61921028 -68.64373238 49.61921028 -68.64042664 47.75895691 C-68.49607763 32.84002768 -66.71461629 18.49148869 -56.07421875 7.16015625 C-40.90647165 -6.61636573 -18.1950474 -11.1429401 0 0 Z " fill="#2E58FF" transform="translate(259.328125,5.42578125)"/>
<path d="M0 0 C2.0625 2.875 2.0625 2.875 2.6875 5.875 C1.79524555 10.15782134 0.68289136 11.36857521 -2.9375 13.875 C-5.71440416 14.51089733 -8.48494719 14.86064018 -11.30859375 15.23828125 C-29.46104967 18.42326544 -46.89786721 27.11154745 -60.9375 38.875 C-61.94554687 39.71933594 -62.95359375 40.56367188 -63.9921875 41.43359375 C-80.96499548 56.08984644 -92.96467594 75.99457414 -97.9375 97.875 C-98.2778125 98.926875 -98.618125 99.97875 -98.96875 101.0625 C-100.46494758 106.95076144 -100.68100329 112.90830513 -101.06054688 118.95703125 C-101.74680433 128.02057566 -101.74680433 128.02057566 -104.9375 131.875 C-107.74665474 133.27957737 -109.82560534 133.12395157 -112.9375 132.875 C-116.0734157 131.09515595 -116.77852736 130.35191793 -117.9375 126.875 C-119.94043363 106.76960289 -114.2015073 85.6359312 -104.9375 67.875 C-104.63086426 67.2783252 -104.32422852 66.68165039 -104.00830078 66.06689453 C-88.89842801 36.98293516 -62.25497779 13.0208718 -30.88671875 2.6796875 C-26.83902638 1.57528402 -22.77520331 0.57018611 -18.6875 -0.375 C-17.93009521 -0.5507959 -17.17269043 -0.7265918 -16.39233398 -0.90771484 C-4.75376694 -3.43889523 -4.75376694 -3.43889523 0 0 Z " fill="#2F59FF" transform="translate(325.9375,330.125)"/>
<path d="M0 0 C3.65333804 3.07212517 6.73990463 6.00593552 7.375 10.875 C6.90861602 14.76153319 5.78420524 16.29313379 3 19 C1.1875 20 1.1875 20 -1 20 C-4.77486791 18.80793645 -7.29312916 17.79807998 -9.9375 14.8125 C-11.40733724 10.92175435 -11.33543441 8.15938672 -11 4 C-8.08828824 -0.36756764 -5.03287235 -0.60394468 0 0 Z " fill="#2E58FF" transform="translate(105,431)"/>
</svg>
