<?xml version="1.0" encoding="UTF-8"?>
<svg version="1.1" xmlns="http://www.w3.org/2000/svg" width="500" height="500">
<path d="M0 0 C0.67595215 0.20367187 1.3519043 0.40734375 2.04833984 0.6171875 C21.42278556 6.6690751 37.812049 17.39032717 51.8828125 31.88671875 C53.86376534 33.86401669 55.9109689 35.65013856 58.0625 37.4375 C81.96150609 58.13111671 95.29855568 93.04060188 102 123 C102.36931641 124.61648438 102.36931641 124.61648438 102.74609375 126.265625 C107.17855679 149.62011993 104.06336953 172.53996515 90.74609375 192.4453125 C81.2838074 205.88338189 67.89734829 214.78944793 51.75 218.375 C37.53368173 220.34948865 25.20029592 218.76798497 11.53417969 214.72314453 C6.99425469 213.42764763 2.40479915 212.34213282 -2.1875 211.25 C-3.04835205 211.03964111 -3.9092041 210.82928223 -4.79614258 210.61254883 C-31.66288579 204.1894348 -60.09971537 208.58800997 -86.2578125 216.21484375 C-104.21560568 221.38363116 -122.36655338 220.60789207 -139.05078125 211.796875 C-144.14281217 208.69444556 -148.57243538 204.97591197 -153 201 C-153.72058594 200.38511719 -154.44117188 199.77023437 -155.18359375 199.13671875 C-168.72409235 186.81037792 -173.58351635 168.66876977 -175 151 C-175.27438611 144.51875893 -174.69426421 138.28373964 -173.75 131.875 C-173.61505127 130.95630127 -173.48010254 130.03760254 -173.34106445 129.09106445 C-166.95291794 87.60973458 -142.5681844 44.61095838 -108.578125 19.4140625 C-77.66536536 -2.58600158 -36.7092787 -11.27642218 0 0 Z " fill="#DCA590" transform="translate(285,231)"/>
<path d="M0 0 C0.67595215 0.20367187 1.3519043 0.40734375 2.04833984 0.6171875 C21.42278556 6.6690751 37.812049 17.39032717 51.8828125 31.88671875 C53.86376534 33.86401669 55.9109689 35.65013856 58.0625 37.4375 C81.96150609 58.13111671 95.29855568 93.04060188 102 123 C102.36931641 124.61648438 102.36931641 124.61648438 102.74609375 126.265625 C107.17855679 149.62011993 104.06336953 172.53996515 90.74609375 192.4453125 C81.2838074 205.88338189 67.89734829 214.78944793 51.75 218.375 C37.53368173 220.34948865 25.20029592 218.76798497 11.53417969 214.72314453 C6.99425469 213.42764763 2.40479915 212.34213282 -2.1875 211.25 C-3.04835205 211.03964111 -3.9092041 210.82928223 -4.79614258 210.61254883 C-31.66288579 204.1894348 -60.09971537 208.58800997 -86.2578125 216.21484375 C-104.21560568 221.38363116 -122.36655338 220.60789207 -139.05078125 211.796875 C-144.14281217 208.69444556 -148.57243538 204.97591197 -153 201 C-153.72058594 200.38511719 -154.44117188 199.77023437 -155.18359375 199.13671875 C-168.72409235 186.81037792 -173.58351635 168.66876977 -175 151 C-175.27438611 144.51875893 -174.69426421 138.28373964 -173.75 131.875 C-173.61505127 130.95630127 -173.48010254 130.03760254 -173.34106445 129.09106445 C-166.95291794 87.60973458 -142.5681844 44.61095838 -108.578125 19.4140625 C-77.66536536 -2.58600158 -36.7092787 -11.27642218 0 0 Z M-107.46582031 62.67041016 C-128.75959319 88.20342957 -144.97959999 122.09877342 -142 156 C-140.58696734 165.79029774 -134.80517269 175.73683836 -126.93359375 181.78515625 C-118.50867695 187.0783868 -110.4457121 188.44526159 -100.7421875 186.26953125 C-98.27918866 185.60641618 -95.82242096 184.91988259 -93.37109375 184.21484375 C-88.20880659 182.74180659 -82.98489756 181.55881528 -77.75 180.375 C-76.85176514 180.16915283 -75.95353027 179.96330566 -75.02807617 179.7512207 C-73.23693777 179.34665381 -71.44347716 178.95224436 -69.64794922 178.56762695 C-67.9627755 178.20638512 -66.28137607 177.82668309 -64.60595703 177.42260742 C-54.99317392 175.32258113 -45.16620235 175.56113422 -35.375 175.5625 C-34.41968384 175.56110016 -33.46436768 175.55970032 -32.48010254 175.55825806 C-11.50628433 175.58352931 7.2678985 178.82469036 27 186 C35.21632094 188.52809875 44.27798936 187.58301294 52 184 C61.53160865 178.66229915 67.04072821 171.08418553 71 161 C76.97765296 133.59642225 63.26672806 101.24516277 48.71411133 78.48925781 C45.13360782 73.04672764 41.25826504 67.93284168 37 63 C36.33871094 62.19433594 35.67742187 61.38867188 34.99609375 60.55859375 C20.50085297 43.50065847 -0.45764548 30.33860277 -23 28 C-56.3160408 25.72558002 -85.34819245 37.46574496 -107.46582031 62.67041016 Z " fill="#985D42" transform="translate(285,231)"/>
<path d="M0 0 C1.44074699 1.07255609 2.85692211 2.17871763 4.25 3.3125 C5.05953125 3.94929688 5.8690625 4.58609375 6.703125 5.2421875 C23.36956884 19.19905611 33.09024725 40.87083094 35.25 62.3125 C36.49131255 90.73880519 33.33948474 118.57469617 14.4375 141.1875 C5.37281757 150.750829 -6.86695939 159.00750266 -20.3515625 159.6484375 C-30.44063448 159.8302946 -39.34610722 159.37559498 -48.75 155.3125 C-49.678125 154.92320312 -50.60625 154.53390625 -51.5625 154.1328125 C-68.28830719 146.10252439 -78.7079793 129.47211321 -84.7578125 112.51171875 C-93.09538771 85.62796247 -92.50466152 54.00450534 -79.83886719 28.47607422 C-71.1472137 12.19840334 -58.269491 0.16105109 -40.625 -5.5 C-27.14884211 -8.80726583 -11.88426419 -7.4718929 0 0 Z " fill="#995E43" transform="translate(351.75,56.6875)"/>
<path d="M0 0 C0.93005859 0.67675781 0.93005859 0.67675781 1.87890625 1.3671875 C18.24329506 14.32690481 28.19518662 37.15113284 30.78515625 57.55078125 C32.50919091 85.22937409 29.61927207 114.4564889 10.625 136.1875 C9.10070032 137.80817803 7.55979289 139.41345251 6 141 C5.36191406 141.65097656 4.72382813 142.30195313 4.06640625 142.97265625 C-2.98318488 149.6411884 -12.32509124 154.64686591 -22 156 C-23.53914063 156.2165625 -23.53914063 156.2165625 -25.109375 156.4375 C-40.23750374 158.05116707 -53.17644239 154.39898779 -65.1875 145.1875 C-81.34525963 131.60086592 -91.34971146 110.4264193 -93.7890625 89.52099609 C-96.10963578 61.78692237 -92.54249577 32.89568928 -74.359375 10.671875 C-55.67055777 -11.03848754 -24.00109005 -17.7885174 0 0 Z " fill="#995E43" transform="translate(207,60)"/>
<path d="M0 0 C0.70125 0.24234375 1.4025 0.4846875 2.125 0.734375 C17.34923732 6.95093857 29.35550276 24.48683922 35.4921875 39.03515625 C43.32775164 58.94931642 43.88571507 81.69361993 35.50390625 101.54296875 C34.09338513 104.43084367 32.61681799 107.22338458 31 110 C30.48566406 110.93328125 29.97132812 111.8665625 29.44140625 112.828125 C28.72791016 113.90320313 28.72791016 113.90320313 28 115 C27.34 115 26.68 115 26 115 C25.773125 115.5775 25.54625 116.155 25.3125 116.75 C21.642206 123.04193257 12.81787591 127.95986592 6.046875 130.375 C-9.30149347 133.52338328 -24.95066848 130.63986164 -38.41015625 122.75390625 C-54.62440984 111.77321264 -66.51499701 94.01098387 -70.37890625 74.7421875 C-71.33118996 68.63406415 -71.39030868 62.48318687 -71.4375 56.3125 C-71.4478125 55.19641357 -71.458125 54.08032715 -71.46875 52.93041992 C-71.2873417 35.81379132 -66.069296 20.41351834 -54 8 C-47.69312383 2.53264145 -40.9606365 -0.63469906 -33 -3 C-32.38769531 -3.19207031 -31.77539062 -3.38414062 -31.14453125 -3.58203125 C-20.47833135 -5.66087167 -9.98504061 -3.9385438 0 0 Z " fill="#985E42" transform="translate(85,179)"/>
<path d="M0 0 C11.6774954 9.67303585 19.61937825 21.88601708 22 37 C23.33273019 51.97960327 22.66786604 66.67224453 18 81 C17.71125 81.93328125 17.4225 82.8665625 17.125 83.828125 C11.30194649 100.36143765 -1.74286671 114.08421035 -17 122.25 C-18.32338172 122.85557112 -19.65713476 123.43895766 -21 124 C-21.67675781 124.2990625 -22.35351562 124.598125 -23.05078125 124.90625 C-33.6409874 128.85700048 -48.16539371 128.91144946 -58.51953125 124.3203125 C-72.23297925 117.02087089 -81.46842563 108.37023775 -86.15625 93.27734375 C-92.2474867 71.68162412 -91.98729668 47.32854785 -80.98974609 27.14599609 C-78.53152643 22.94667353 -75.82110544 18.96273984 -73 15 C-72.53078125 14.31292969 -72.0615625 13.62585938 -71.578125 12.91796875 C-64.34516985 3.38564823 -50.40403141 -5.41825823 -38.75390625 -7.6875 C-24.54667885 -9.29966765 -12.28176823 -7.75935168 0 0 Z " fill="#995E43" transform="translate(464,183)"/>
<path d="M0 0 C10.98688218 7.29419564 17.65135065 18.66781432 20.87890625 31.28125 C24.6061449 49.86638521 23.00582463 71.28280311 12.37890625 87.3828125 C2.98122786 99.72878215 2.98122786 99.72878215 -4.65625 101.16015625 C-11.7536222 101.51097693 -17.36020876 100.30429835 -22.80078125 95.625 C-34.3904331 82.75460763 -38.22499608 68.55589656 -38.17578125 51.625 C-38.17523743 50.9290271 -38.1746936 50.2330542 -38.1741333 49.51599121 C-38.11591444 33.37958485 -35.89034478 18.03997962 -24.42578125 5.6875 C-17.45952281 -0.65377683 -9.04551378 -4.44075432 0 0 Z " fill="#DCA590" transform="translate(332.80078125,83.375)"/>
<path d="M0 0 C11.05475516 6.06663393 17.45322778 17.03753652 20.98046875 28.87890625 C22.78491629 35.74247727 22.9509779 42.46389107 22.9375 49.53125 C22.93508301 50.85084717 22.93266602 52.17044434 22.93017578 53.5300293 C22.6462291 68.67849219 19.17192806 82.67699474 8.5 93.94921875 C3.76352156 98.43592196 -1.00839615 101.59906102 -7.625 102.12890625 C-15.21897329 101.75810677 -20.31968959 96.53342719 -25.3125 91.28125 C-36.88890852 77.33693974 -39.00457908 58.39597246 -37.625 40.96875 C-35.86876441 27.25660286 -31.26453733 13.43134902 -20.5625 4.15625 C-19.593125 3.434375 -18.62375 2.7125 -17.625 1.96875 C-16.8825 1.370625 -16.14 0.7725 -15.375 0.15625 C-10.20214745 -2.07748178 -5.25073634 -2.06278928 0 0 Z " fill="#DCA590" transform="translate(182.625,83.03125)"/>
<path d="M0 0 C5.66978941 4.6521349 10.80875096 9.92592013 11.74389648 17.47265625 C12.18871443 35.27880263 10.73044622 48.11352371 -1.5625 62 C-7.20377855 67.36136778 -12.87747301 69.86710477 -20.6875 70.4375 C-24.5625 70 -24.5625 70 -27.3125 67.875 C-28.055 66.92625 -28.7975 65.9775 -29.5625 65 C-30.26375 64.13375 -30.965 63.2675 -31.6875 62.375 C-37.36044496 52.16369906 -38.15919338 40.04049166 -35.90625 28.6953125 C-32.28738292 16.68441745 -25.59185224 6.81527402 -14.625 0.625 C-9.66248224 -1.67353051 -5.20291685 -2.03040657 0 0 Z " fill="#DCA58F" transform="translate(442.5625,208)"/>
<path d="M0 0 C10.56588735 5.17414163 17.65420606 15.01154169 21.4375 25.875 C25.31644108 38.40515511 24.74540291 51.19581348 18.8125 62.9375 C16.00077579 66.95424887 13.4980957 69.54544938 8.51953125 70.44140625 C0.7677186 70.85501415 -4.60447974 67.66957793 -10.5 62.9375 C-14.88984132 58.89195996 -17.70689804 54.36712875 -20.375 49.0625 C-20.79007813 48.299375 -21.20515625 47.53625 -21.6328125 46.75 C-26.1113027 36.97874865 -26.70319736 22.38092694 -23.26953125 12.1484375 C-18.27639417 1.35897776 -11.60595805 -3.22387724 0 0 Z " fill="#DCA58F" transform="translate(70.375,207.9375)"/>
<path d="M0 0 C0.74507812 0.00451172 1.49015625 0.00902344 2.2578125 0.01367188 C4.0885764 0.02540754 5.91929873 0.0433415 7.75 0.0625 C7.75 0.3925 7.75 0.7225 7.75 1.0625 C5.94402344 1.24425781 5.94402344 1.24425781 4.1015625 1.4296875 C2.52599234 1.59849859 0.95047408 1.76779459 -0.625 1.9375 C-1.4190625 2.01613281 -2.213125 2.09476563 -3.03125 2.17578125 C-7.6093122 2.52726858 -7.6093122 2.52726858 -11.25 5.0625 C-13.8515625 5.6953125 -13.8515625 5.6953125 -16.875 6.1875 C-17.87789062 6.35507813 -18.88078125 6.52265625 -19.9140625 6.6953125 C-20.68492188 6.81648437 -21.45578125 6.93765625 -22.25 7.0625 C-22.25 7.7225 -22.25 8.3825 -22.25 9.0625 C-23.24 9.3925 -24.23 9.7225 -25.25 10.0625 C-25.58 10.7225 -25.91 11.3825 -26.25 12.0625 C-29.1875 13.25 -29.1875 13.25 -32.25 14.0625 C-32.91 13.7325 -33.57 13.4025 -34.25 13.0625 C-23.64403653 4.61055232 -13.62972193 -0.15652508 0 0 Z " fill="#AE8C7D" transform="translate(64.25,174.9375)"/>
<path d="M0 0 C2.34471417 1.80314779 2.95527131 2.70120906 3.40063477 5.67626953 C3.41408936 6.73442871 3.42754395 7.79258789 3.44140625 8.8828125 C3.46783203 10.05070313 3.49425781 11.21859375 3.52148438 12.421875 C3.53501953 13.64390625 3.54855469 14.8659375 3.5625 16.125 C3.67671216 23.99294887 3.83400847 31.40065695 6 39 C6.28101563 40.01191406 6.56203125 41.02382812 6.8515625 42.06640625 C7.10679687 42.89011719 7.36203125 43.71382812 7.625 44.5625 C7.88539063 45.40941406 8.14578125 46.25632813 8.4140625 47.12890625 C8.60742188 47.74636719 8.80078125 48.36382812 9 49 C8.34 49.66 7.68 50.32 7 51 C1.19482486 33.73957467 -0.31839341 18.19006023 0 0 Z " fill="#B5907E" transform="translate(262,123)"/>
<path d="M0 0 C-0.33 0.66 -0.66 1.32 -1 2 C-3.29199177 1.85936865 -5.58359186 1.71234057 -7.875 1.5625 C-9.15117187 1.48128906 -10.42734375 1.40007813 -11.7421875 1.31640625 C-15 1 -15 1 -17 0 C-19.08611707 0.0633903 -21.17032712 0.19931987 -23.25 0.375 C-24.92835938 0.51035156 -24.92835938 0.51035156 -26.640625 0.6484375 C-30.00560053 0.9471813 -30.00560053 0.9471813 -33.296875 1.6640625 C-34.18890625 1.77492188 -35.0809375 1.88578125 -36 2 C-36.66 1.34 -37.32 0.68 -38 0 C-24.3540899 -3.69760145 -13.6459101 -3.69760145 0 0 Z " fill="#B28A7A" transform="translate(194,53)"/>
<path d="M0 0 C0.33 0 0.66 0 1 0 C1.64778785 18.95526915 0.57759044 34.14344083 -9 51 C-9.33 49.68 -9.66 48.36 -10 47 C-9.34 47 -8.68 47 -8 47 C-8.04125 46.21625 -8.0825 45.4325 -8.125 44.625 C-8 42 -8 42 -6 40 C-4.25494105 35.79132841 -3.66957413 31.84012293 -3.34375 27.34375 C-3 25 -3 25 -2.0078125 22.3359375 C-0.67482374 17.92364138 -0.54073495 13.71033369 -0.375 9.125 C-0.33632813 8.24585938 -0.29765625 7.36671875 -0.2578125 6.4609375 C-0.16418966 4.30761207 -0.08103541 2.15383586 0 0 Z " fill="#AF8A7B" transform="translate(388,367)"/>
<path d="M0 0 C0.87840996 3.09720845 0.99435406 4.90645403 0 8 C0.66 8 1.32 8 2 8 C1.67 8.99 1.34 9.98 1 11 C0.67 11 0.34 11 0 11 C-0.02917234 14.87498404 -0.04685673 18.74993958 -0.0625 22.625 C-0.07087891 23.71941406 -0.07925781 24.81382812 -0.08789062 25.94140625 C-0.09111328 27.00488281 -0.09433594 28.06835938 -0.09765625 29.1640625 C-0.10289307 30.13811035 -0.10812988 31.1121582 -0.11352539 32.11572266 C-0.07249436 35.06760223 -0.07249436 35.06760223 0.63110352 38.17724609 C1 41 1 41 -1 44 C-4.22804094 28.7820927 -3.3514253 15.00161802 0 0 Z " fill="#B59383" transform="translate(377,226)"/>
<path d="M0 0 C0.66 0 1.32 0 2 0 C2.19247045 4.35949378 2.37115801 8.71926895 2.53710938 13.07983398 C2.59549775 14.56306078 2.65764593 16.04614455 2.72363281 17.52905273 C2.81784811 19.66103065 2.89851575 21.79315781 2.9765625 23.92578125 C3.02893066 25.20880127 3.08129883 26.49182129 3.13525391 27.8137207 C3 31 3 31 1 34 C-0.71771286 22.35942805 -1.37011701 11.71939368 0 0 Z " fill="#AA8372" transform="translate(111,363)"/>
<path d="M0 0 C1.33984311 0.00146165 2.67968735 0.00211624 4.01953125 0.00195312 C9.68476831 0.0276264 15.04554449 0.12874472 20.625 1.1875 C20.625 1.5175 20.625 1.8475 20.625 2.1875 C19.95557373 2.18226318 19.28614746 2.17702637 18.59643555 2.17163086 C15.50180029 2.15057529 12.40718019 2.1377503 9.3125 2.125 C7.7337207 2.11243164 7.7337207 2.11243164 6.12304688 2.09960938 C0.05419505 2.08093598 -5.88045779 2.34711682 -11.91723633 2.96264648 C-15.138784 3.25737633 -18.32911688 3.28476756 -21.5625 3.25 C-22.66980469 3.24097656 -23.77710938 3.23195312 -24.91796875 3.22265625 C-25.72878906 3.21105469 -26.53960937 3.19945312 -27.375 3.1875 C-27.375 2.8575 -27.375 2.5275 -27.375 2.1875 C-18.19411535 0.28960103 -9.35650825 -0.08791971 0 0 Z " fill="#A47D6C" transform="translate(251.375,226.8125)"/>
<path d="M0 0 C-0.33 0.66 -0.66 1.32 -1 2 C-3.35182299 2.41340638 -5.62850004 2.70690663 -8 2.9375 C-14.2130221 3.61945178 -20.34931916 4.51162739 -26.5 5.625 C-27.24765625 5.760271 -27.9953125 5.89554199 -28.765625 6.03491211 C-30.51101327 6.35335525 -32.25560423 6.67616415 -34 7 C-34 6.34 -34 5.68 -34 5 C-32.35 4.67 -30.7 4.34 -29 4 C-29 3.67 -29 3.34 -29 3 C-9.65957447 -0.57446809 -9.65957447 -0.57446809 0 0 Z " fill="#A98272" transform="translate(242,437)"/>
<path d="M0 0 C0.33 0 0.66 0 1 0 C1.33974401 5.54915224 0.28103796 8.98171649 -2 14 C-2.82061881 18.02786201 -3.16834606 21.95130521 -3.31640625 26.0546875 C-3.37924805 27.71757812 -3.37924805 27.71757812 -3.44335938 29.4140625 C-3.48267578 30.55617187 -3.52199219 31.69828125 -3.5625 32.875 C-3.60568359 34.0403125 -3.64886719 35.205625 -3.69335938 36.40625 C-3.79901629 39.27072625 -3.90111799 42.13528321 -4 45 C-4.33 45 -4.66 45 -5 45 C-5.08860651 40.77097009 -5.14092245 36.54218507 -5.1875 32.3125 C-5.21263672 31.13365234 -5.23777344 29.95480469 -5.26367188 28.74023438 C-5.34668481 18.64032698 -3.9440027 9.34331347 0 0 Z " fill="#BA9888" transform="translate(19,204)"/>
<path d="M0 0 C6.44070471 -0.10655578 12.62641289 0.03794912 19 1 C19 1.66 19 2.32 19 3 C23.29 3.33 27.58 3.66 32 4 C32.495 5.485 32.495 5.485 33 7 C35.01508358 7.73323796 35.01508358 7.73323796 37 8 C33.76705267 9.61647367 30.77253774 7.81289109 27.5 6.75 C18.45123185 3.92931167 9.36682613 2.34750832 0 1 C0 0.67 0 0.34 0 0 Z " fill="#AF8B7C" transform="translate(265,438)"/>
<path d="M0 0 C4.76738852 0.48481917 8.58979022 1.07760086 13 3 C18.68248852 4.92589495 23.96097521 5.40684548 29.9375 5.625 C30.81212891 5.66367187 31.68675781 5.70234375 32.58789062 5.7421875 C34.72494631 5.8356107 36.86244294 5.91885398 39 6 C39 6.33 39 6.66 39 7 C25.05492746 7.37205233 12.82797834 7.12244421 0 1 C0 0.67 0 0.34 0 0 Z " fill="#AB8571" transform="translate(148,443)"/>
<path d="M0 0 C1.3547862 0.28877529 2.70879302 0.58120717 4.0625 0.875 C5.19365234 1.11863281 5.19365234 1.11863281 6.34765625 1.3671875 C9 2 9 2 12.21875 3.03125 C16.67069917 4.17183202 20.86291554 4.448062 25.4375 4.625 C26.26443359 4.66367188 27.09136719 4.70234375 27.94335938 4.7421875 C29.96191073 4.83553092 31.98092331 4.91880961 34 5 C34 5.33 34 5.66 34 6 C21.82951269 7.53518305 11.02639217 6.91174038 0 1 C0 0.67 0 0.34 0 0 Z " fill="#BA9787" transform="translate(151,210)"/>
<path d="M0 0 C4.55700425 0.52484692 7.192874 2.31507303 10.8125 5.0625 C11.78832031 5.79597656 12.76414062 6.52945313 13.76953125 7.28515625 C14.87361328 8.13400391 14.87361328 8.13400391 16 9 C11.84228506 10.31538327 9.1120703 9.34433068 5 8 C5 7.01 5 6.02 5 5 C3.35178756 3.96986723 1.68496298 2.96885372 0 2 C0 1.34 0 0.68 0 0 Z " fill="#A77E6A" transform="translate(344,54)"/>
<path d="M0 0 C0.66 0 1.32 0 2 0 C1.44380331 4.6889493 0.11817327 8.19924267 -2.0625 12.375 C-2.61035156 13.43460937 -3.15820312 14.49421875 -3.72265625 15.5859375 C-4.14417969 16.38257813 -4.56570312 17.17921875 -5 18 C-5.99 18 -6.98 18 -8 18 C-7.34 17.67 -6.68 17.34 -6 17 C-6.66 15.35 -7.32 13.7 -8 12 C-7.195625 11.79375 -6.39125 11.5875 -5.5625 11.375 C-4.716875 10.92125 -3.87125 10.4675 -3 10 C-2.2397871 7.10615338 -2.2397871 7.10615338 -2 4 C-0.9375 1.625 -0.9375 1.625 0 0 Z " fill="#AF8673" transform="translate(121,271)"/>
<path d="M0 0 C1.49828872 3.88235819 0.43110582 6.43449288 -0.9375 10.25 C-1.31777344 11.32765625 -1.69804687 12.4053125 -2.08984375 13.515625 C-2.39019531 14.33546875 -2.69054687 15.1553125 -3 16 C-5.5654594 13.4345406 -5.54046087 11.52313332 -6 8 C-5.01 7.67 -4.02 7.34 -3 7 C-2.87625 6.030625 -2.7525 5.06125 -2.625 4.0625 C-2.41875 3.051875 -2.2125 2.04125 -2 1 C-1.34 0.67 -0.68 0.34 0 0 Z " fill="#AB7D6C" transform="translate(383,159)"/>
<path d="M0 0 C0.66 0.33 1.32 0.66 2 1 C1.66009167 6.37992836 1.31442207 10.53273547 -2 15 C-2.99 14.67 -3.98 14.34 -5 14 C-3.45730076 9.27934033 -1.92205381 4.58335908 0 0 Z " fill="#AB796A" transform="translate(124,319)"/>
<path d="M0 0 C3.39417765 3.12621626 5.6062718 5.56541027 7 10 C5.68 10 4.36 10 3 10 C2.67 10.99 2.34 11.98 2 13 C1.67 12.34 1.34 11.68 1 11 C1.33 10.01 1.66 9.02 2 8 C1.01 7.67 0.02 7.34 -1 7 C-0.67 4.69 -0.34 2.38 0 0 Z " fill="#A1725B" transform="translate(353,281)"/>
<path d="M0 0 C2.109375 0.20703125 2.109375 0.20703125 4.75 0.8125 C11.46622365 2.1949896 18.16384826 2.62076822 25 3 C25 3.33 25 3.66 25 4 C21.99975053 4.05444001 19.00050961 4.0938836 16 4.125 C15.16082031 4.14175781 14.32164063 4.15851563 13.45703125 4.17578125 C7.94745123 4.21849117 3.28951708 3.55502007 -2 2 C-1.34 1.34 -0.68 0.68 0 0 Z " fill="#B38E7C" transform="translate(63,306)"/>
<path d="M0 0 C4.29 0.33 8.58 0.66 13 1 C13.33 1.99 13.66 2.98 14 4 C15.65 4 17.3 4 19 4 C19 4.33 19 4.66 19 5 C11.88486245 5.53699151 6.55004254 3.69707634 0 1 C0 0.67 0 0.34 0 0 Z " fill="#AC8171" transform="translate(403,305)"/>
<path d="M0 0 C3.23861303 1.44424635 5.61969163 3.25772247 8.25 5.625 C8.95640625 6.25664062 9.6628125 6.88828125 10.390625 7.5390625 C10.92171875 8.02117187 11.4528125 8.50328125 12 9 C11.34 9.66 10.68 10.32 10 11 C10 10.34 10 9.68 10 9 C9.0409375 8.8453125 9.0409375 8.8453125 8.0625 8.6875 C7.381875 8.460625 6.70125 8.23375 6 8 C5.67 7.01 5.34 6.02 5 5 C4.0409375 5.2784375 4.0409375 5.2784375 3.0625 5.5625 C2.381875 5.706875 1.70125 5.85125 1 6 C0 5 0 5 -0.0625 2.4375 C-0.041875 1.633125 -0.02125 0.82875 0 0 Z " fill="#B6917E" transform="translate(91,183)"/>
<path d="M0 0 C-0.33 1.98 -0.66 3.96 -1 6 C-4.64793184 7.27253436 -8.1936543 8.32829194 -12 9 C-9.14880426 5.05219051 -5.28603137 0 0 0 Z " fill="#AA7F6D" transform="translate(150,57)"/>
<path d="M0 0 C3.27742098 3.10026309 5.93104837 5.97098894 8 10 C8 10.66 8 11.32 8 12 C7.01 12 6.02 12 5 12 C4.34 10.68 3.68 9.36 3 8 C2.34 8 1.68 8 1 8 C-0.35439668 5.29120665 -0.06501451 2.99066732 0 0 Z " fill="#AD8977" transform="translate(108,199)"/>
<path d="M0 0 C-0.3125 1.9375 -0.3125 1.9375 -1 4 C-1.99 4.33 -2.98 4.66 -4 5 C-4.33 5.66 -4.66 6.32 -5 7 C-7.9375 8.1875 -7.9375 8.1875 -11 9 C-11.66 8.67 -12.32 8.34 -13 8 C-11.2126038 6.66094733 -9.41995047 5.32890934 -7.625 4 C-6.62726562 3.2575 -5.62953125 2.515 -4.6015625 1.75 C-2 0 -2 0 0 0 Z " fill="#B08D7A" transform="translate(43,180)"/>
<path d="M0 0 C0.33 0.66 0.66 1.32 1 2 C1.66 2.33 2.32 2.66 3 3 C2.38125 3.08378906 1.7625 3.16757813 1.125 3.25390625 C-1.13002665 3.79897298 -1.13002665 3.79897298 -2.125 5.77734375 C-2.41375 6.49019531 -2.7025 7.20304687 -3 7.9375 C-4.10272791 10.65001375 -4.5661585 11.74400161 -7.125 13.25390625 C-7.74375 13.50011719 -8.3625 13.74632813 -9 14 C-7.65070536 10.16336928 -5.92248975 7.34827431 -3.375 4.1875 C-2.42753906 3.00220703 -2.42753906 3.00220703 -1.4609375 1.79296875 C-0.97882813 1.20128906 -0.49671875 0.60960938 0 0 Z " fill="#B3907F" transform="translate(284,68)"/>
<path d="M0 0 C0.33 0.66 0.66 1.32 1 2 C-0.109375 4.71484375 -0.109375 4.71484375 -1.75 7.9375 C-2.28109375 8.99839844 -2.8121875 10.05929687 -3.359375 11.15234375 C-4.74772349 13.56212006 -5.91898098 15.20104681 -8 17 C-7.5020163 13.26512223 -7.12508244 11.18762365 -5 8 C-4.34 8 -3.68 8 -3 8 C-3 5.69 -3 3.38 -3 1 C-2.01 0.67 -1.02 0.34 0 0 Z " fill="#B49181" transform="translate(480,265)"/>
<path d="M0 0 C0.77923828 0.00902344 1.55847656 0.01804688 2.36132812 0.02734375 C4.26185447 0.05066309 6.16222008 0.08652414 8.0625 0.125 C8.0625 0.455 8.0625 0.785 8.0625 1.125 C4.44004285 1.68469677 0.81436441 2.21967782 -2.8125 2.75 C-3.84503906 2.90984375 -4.87757813 3.0696875 -5.94140625 3.234375 C-6.92753906 3.37617187 -7.91367188 3.51796875 -8.9296875 3.6640625 C-9.84089355 3.80021973 -10.75209961 3.93637695 -11.69091797 4.07666016 C-12.43229004 4.0926123 -13.17366211 4.10856445 -13.9375 4.125 C-14.5975 3.465 -15.2575 2.805 -15.9375 2.125 C-10.46690419 0.27967286 -5.74930072 -0.12809068 0 0 Z " fill="#A07665" transform="translate(171.9375,50.875)"/>
<path d="M0 0 C6.75 0.75 6.75 0.75 9 3 C10.98356483 3.71408334 12.98315437 4.38617742 15 5 C14.67 5.66 14.34 6.32 14 7 C10.2397015 6.41892368 7.46964968 5.34800504 4.1875 3.4375 C3.39730469 2.98246094 2.60710938 2.52742188 1.79296875 2.05859375 C1.20128906 1.70925781 0.60960937 1.35992187 0 1 C0 0.67 0 0.34 0 0 Z " fill="#AC8677" transform="translate(46,300)"/>
<path d="M0 0 C0.99 0.33 1.98 0.66 3 1 C2.01 1.33 1.02 1.66 0 2 C0 2.66 0 3.32 0 4 C-1.66666667 4.66666667 -3.33333333 5.33333333 -5 6 C-5.886875 6.391875 -6.77375 6.78375 -7.6875 7.1875 C-8.450625 7.455625 -9.21375 7.72375 -10 8 C-10.66 7.67 -11.32 7.34 -12 7 C-10.37554381 6.01993141 -8.75041739 5.04097364 -7.125 4.0625 C-6.22007812 3.51722656 -5.31515625 2.97195312 -4.3828125 2.41015625 C-2.94798364 1.56101983 -1.49124552 0.74562276 0 0 Z " fill="#AB816D" transform="translate(194,240)"/>
<path d="M0 0 C1 2 1 2 0.25 5.5625 C-0.1625 6.696875 -0.575 7.83125 -1 9 C-1.99 9.33 -2.98 9.66 -4 10 C-5.21869929 12.50447516 -5.21869929 12.50447516 -6 15 C-6.66 15 -7.32 15 -8 15 C-6.51194289 9.19657726 -3.40902445 4.82409121 0 0 Z " fill="#AF8B78" transform="translate(138,294)"/>
<path d="M0 0 C-0.33 0.99 -0.66 1.98 -1 3 C-4.3 3.66 -7.6 4.32 -11 5 C-11 4.01 -11 3.02 -11 2 C-7.17010894 0.19769832 -4.21878192 -0.19622241 0 0 Z " fill="#A37B68" transform="translate(54,177)"/>
<path d="M0 0 C0.33 0 0.66 0 1 0 C1.27599507 1.76696843 1.51996915 3.53896215 1.75 5.3125 C1.88921875 6.29863281 2.0284375 7.28476562 2.171875 8.30078125 C2 11 2 11 0.015625 12.85546875 C-0.64953125 13.23316406 -1.3146875 13.61085938 -2 14 C-1.03644647 4.58997722 -1.03644647 4.58997722 0 0 Z " fill="#A97F6F" transform="translate(114,347)"/>
<path d="M0 0 C0.99 0.33 1.98 0.66 3 1 C3 1.66 3 2.32 3 3 C3.9590625 3.3403125 3.9590625 3.3403125 4.9375 3.6875 C7 5 7 5 7.75 7.625 C7.8325 8.40875 7.915 9.1925 8 10 C7.01 10.495 7.01 10.495 6 11 C4.9944239 9.54550599 3.99569565 8.08627557 3 6.625 C2.443125 5.81289063 1.88625 5.00078125 1.3125 4.1640625 C0 2 0 2 0 0 Z " fill="#B18C7D" transform="translate(25,277)"/>
<path d="M0 0 C1.13732426 3.40401948 0.83989957 5.77456664 0.0625 9.25 C-0.13214844 10.14203125 -0.32679688 11.0340625 -0.52734375 11.953125 C-0.68332031 12.62859375 -0.83929688 13.3040625 -1 14 C-1.99 14 -2.98 14 -4 14 C-3.36843005 8.94744036 -1.86540627 4.70406799 0 0 Z " fill="#B69183" transform="translate(382,212)"/>
<path d="M0 0 C0.99 0.66 1.98 1.32 3 2 C1.44499019 5.81684226 -1.03595495 8.19195732 -4 11 C-3.48480955 7.18759068 -2.73970585 5.6205882 0 3 C0 2.01 0 1.02 0 0 Z " fill="#AD8A79" transform="translate(220,186)"/>
<path d="M0 0 C1.84187025 2.76280538 2.72248277 4.80707826 3.6875 7.9375 C3.95949219 8.79214844 4.23148437 9.64679688 4.51171875 10.52734375 C5.02075548 13.10510574 4.84888744 14.54449337 4 17 C0.61504892 11.55464391 0.32626495 6.32278971 0 0 Z " fill="#B69281" transform="translate(380,332)"/>
<path d="M0 0 C2.61724095 2.36797991 4.32861729 4.89600354 6 8 C6 8.66 6 9.32 6 10 C5.01 10 4.02 10 3 10 C-0.22265625 4.82421875 -0.22265625 4.82421875 -1 3 C-0.67 2.01 -0.34 1.02 0 0 Z " fill="#AA8472" transform="translate(362,294)"/>
<path d="M0 0 C0.99 0.33 1.98 0.66 3 1 C3 1.66 3 2.32 3 3 C2.34 3 1.68 3 1 3 C0.731875 3.61875 0.46375 4.2375 0.1875 4.875 C-1 7 -1 7 -4 9 C-3.67 7.02 -3.34 5.04 -3 3 C-2.34 3 -1.68 3 -1 3 C-0.67 2.01 -0.34 1.02 0 0 Z " fill="#B48F7C" transform="translate(110,291)"/>
<path d="M0 0 C3.59391114 1.33488128 6.75490696 2.96022723 10 5 C6.18510326 6.46726798 3.70988378 5.43336419 0 4 C0 2.68 0 1.36 0 0 Z " fill="#A87C69" transform="translate(305,240)"/>
<path d="M0 0 C2.31 1.98 4.62 3.96 7 6 C6.67 6.66 6.34 7.32 6 8 C5.34 8 4.68 8 4 8 C4 7.34 4 6.68 4 6 C2.68 6 1.36 6 0 6 C0 4.02 0 2.04 0 0 Z " fill="#B48F7F" transform="translate(360,64)"/>
<path d="M0 0 C-1.24176695 0.70226141 -2.49385599 1.38629109 -3.75 2.0625 C-4.79414063 2.63677734 -4.79414063 2.63677734 -5.859375 3.22265625 C-8.36140628 4.1312406 -9.5332355 3.88336837 -12 3 C-8.45266434 -0.54733566 -4.72551531 -1.44220272 0 0 Z " fill="#AC8675" transform="translate(351,210)"/>
<path d="M0 0 C0.33 0.99 0.66 1.98 1 3 C0.01 3.33 -0.98 3.66 -2 4 C-2.144375 4.639375 -2.28875 5.27875 -2.4375 5.9375 C-3 8 -3 8 -5.0625 9.25 C-5.701875 9.4975 -6.34125 9.745 -7 10 C-5.6062718 5.56541027 -3.39417765 3.12621626 0 0 Z " fill="#B29081" transform="translate(395,194)"/>
<path d="M0 0 C0.66 0.99 1.32 1.98 2 3 C1.125 6.6875 1.125 6.6875 0 10 C-0.66 10 -1.32 10 -2 10 C-2.33 10.99 -2.66 11.98 -3 13 C-2.45144652 8.428721 -1.58255197 4.32564205 0 0 Z " fill="#B99584" transform="translate(268,95)"/>
<path d="M0 0 C0.66 0.33 1.32 0.66 2 1 C1.67 2.32 1.34 3.64 1 5 C0.2575 4.95875 -0.485 4.9175 -1.25 4.875 C-4.08758952 5.00398134 -5.58773938 5.57051222 -8 7 C-5.42215154 4.35247996 -3.08351902 2.05567935 0 0 Z " fill="#D69D87" transform="translate(426,210)"/>
<path d="M0 0 C0 0.66 0 1.32 0 2 C0.9590625 2.1546875 0.9590625 2.1546875 1.9375 2.3125 C2.618125 2.539375 3.29875 2.76625 4 3 C4.33 3.99 4.66 4.98 5 6 C1.22454612 4.90931332 -1.47043472 4.0916909 -4 1 C-2 0 -2 0 0 0 Z " fill="#A97F6D" transform="translate(298,205)"/>
<path d="M0 0 C1.32 0.33 2.64 0.66 4 1 C1.36 2.98 -1.28 4.96 -4 7 C-4.33 6.01 -4.66 5.02 -5 4 C-2.75 1.9375 -2.75 1.9375 0 0 Z " fill="#AF8C77" transform="translate(358,201)"/>
<path d="M0 0 C0.33 0.66 0.66 1.32 1 2 C0.22265625 3.7265625 0.22265625 3.7265625 -0.9375 5.625 C-1.618125 6.73875 -2.29875 7.8525 -3 9 C-3.33 9 -3.66 9 -4 9 C-4.25 6.1875 -4.25 6.1875 -4 3 C-2 1.125 -2 1.125 0 0 Z " fill="#B08C7B" transform="translate(377,177)"/>
<path d="M0 0 C1.32 0 2.64 0 4 0 C4 0.66 4 1.32 4 2 C4.66 2 5.32 2 6 2 C5.67 3.32 5.34 4.64 5 6 C3.2925002 4.71937515 1.62626404 3.38232443 0 2 C0 1.34 0 0.68 0 0 Z " fill="#AC8474" transform="translate(280,192)"/>
<path d="M0 0 C0.33 0.66 0.66 1.32 1 2 C1.66 2.33 2.32 2.66 3 3 C1.02 4.32 -0.96 5.64 -3 7 C-3.66 6.67 -4.32 6.34 -5 6 C-3.35 4.02 -1.7 2.04 0 0 Z " fill="#AF8674" transform="translate(137,66)"/>
<path d="M0 0 C0.66 0.33 1.32 0.66 2 1 C1.2884375 1.6496875 1.2884375 1.6496875 0.5625 2.3125 C-1.23686957 4.02309613 -1.23686957 4.02309613 -2 7 C-3.98 7.33 -5.96 7.66 -8 8 C-5.33333333 5.33333333 -2.66666667 2.66666667 0 0 Z " fill="#B49181" transform="translate(173,253)"/>
<path d="M0 0 C3 2 3 2 3.6875 4.625 C3.790625 5.40875 3.89375 6.1925 4 7 C3.01 7 2.02 7 1 7 C-0.0625 4.625 -0.0625 4.625 -1 2 C-0.67 1.34 -0.34 0.68 0 0 Z " fill="#A77E6B" transform="translate(129,186)"/>
<path d="M0 0 C2.50298434 2.93828597 3.46930939 5.17902761 4 9 C3.01 8.67 2.02 8.34 1 8 C-0.35439668 5.29120665 -0.06501451 2.99066732 0 0 Z " fill="#A68172" transform="translate(374,317)"/>
<path d="M0 0 C-3.20336822 2.83374881 -5.78087253 3.5205537 -10 4 C-10 3.34 -10 2.68 -10 2 C-6.49223216 0.39644899 -3.85645121 -0.22036864 0 0 Z " fill="#A78173" transform="translate(98,305)"/>
<path d="M0 0 C5.75 0.75 5.75 0.75 8 3 C5.36 3 2.72 3 0 3 C0 2.01 0 1.02 0 0 Z M-2 3 C0 4 0 4 0 4 Z " fill="#A67A68" transform="translate(288,233)"/>
<path d="M0 0 C1.46109063 0.25554054 2.91888096 0.53000372 4.375 0.8125 C5.59316406 1.03873047 5.59316406 1.03873047 6.8359375 1.26953125 C9 2 9 2 11 5 C9.35153231 4.55123384 7.70626545 4.09069512 6.0625 3.625 C5.14597656 3.36976563 4.22945312 3.11453125 3.28515625 2.8515625 C1 2 1 2 0 0 Z " fill="#C0A392" transform="translate(151,210)"/>
<path d="M0 0 C0.66 0.33 1.32 0.66 2 1 C-0.25740623 3.33524782 -2.2805761 5.18705073 -5 7 C-5.66 6.34 -6.32 5.68 -7 5 C-4.69 3.35 -2.38 1.7 0 0 Z " fill="#B79482" transform="translate(409,182)"/>
<path d="M0 0 C0.33 0 0.66 0 1 0 C1.33 2.64 1.66 5.28 2 8 C0.68 8.33 -0.64 8.66 -2 9 C-1.34 6.03 -0.68 3.06 0 0 Z " fill="#AF8171" transform="translate(120,92)"/>
<path d="M0 0 C3.65316671 1.24976756 4.78065836 1.67098753 7 5 C6.01 5.495 6.01 5.495 5 6 C4.34 5.34 3.68 4.68 3 4 C2.01 4.66 1.02 5.32 0 6 C0 4.02 0 2.04 0 0 Z " fill="#B28D7A" transform="translate(201,57)"/>
<path d="M0 0 C3.68754757 0.49831724 5.60490662 1.10067643 8 4 C5 5 5 5 2.3125 3.6875 C1.549375 3.130625 0.78625 2.57375 0 2 C0 1.34 0 0.68 0 0 Z " fill="#B89588" transform="translate(344,54)"/>
<path d="M0 0 C0.99 0.33 1.98 0.66 3 1 C2.1875 2.9375 2.1875 2.9375 1 5 C0.01 5.33 -0.98 5.66 -2 6 C-1.34 4.02 -0.68 2.04 0 0 Z " fill="#A17360" transform="translate(129,309)"/>
<path d="M0 0 C2.375 0.6875 2.375 0.6875 5 2 C6.3125 4.625 6.3125 4.625 7 7 C3.17053157 5.54744301 1.87949705 3.57104439 0 0 Z " fill="#B89A8E" transform="translate(387,292)"/>
<path d="M0 0 C1.67542976 0.28604898 3.34385343 0.61781233 5 1 C3.625 3 3.625 3 2 5 C1.34 5 0.68 5 0 5 C-0.5625 3.0625 -0.5625 3.0625 -1 1 C-0.67 0.67 -0.34 0.34 0 0 Z " fill="#B08874" transform="translate(459,291)"/>
<path d="M0 0 C3.36591866 1.44253657 5.51047079 3.33264727 8 6 C5.21788056 5.62403791 3.4120716 5.32681541 1.1875 3.5625 C0 2 0 2 0 0 Z " fill="#B49385" transform="translate(321,250)"/>
<path d="M0 0 C2.475 0.495 2.475 0.495 5 1 C5.33 2.98 5.66 4.96 6 7 C1.125 3.375 1.125 3.375 0 0 Z " fill="#B99388" transform="translate(132,194)"/>
<path d="M0 0 C1.98 0.99 1.98 0.99 4 2 C4 2.99 4 3.98 4 5 C3.01 5.33 2.02 5.66 1 6 C0 5 0 5 -0.0625 2.4375 C-0.041875 1.633125 -0.02125 0.82875 0 0 Z " fill="#A97D6B" transform="translate(91,183)"/>
<path d="M0 0 C0.66 0 1.32 0 2 0 C1.25 5.75 1.25 5.75 -1 8 C-1.93065133 5.39417629 -2.14917407 4.35801776 -1.0625 1.75 C-0.711875 1.1725 -0.36125 0.595 0 0 Z " fill="#AC8071" transform="translate(231,165)"/>
<path d="M0 0 C2.18975773 3.28463659 2.99806563 6.20696275 4 10 C3.01 9.67 2.02 9.34 1 9 C0.67 6.03 0.34 3.06 0 0 Z " fill="#BD9E8D" transform="translate(378,89)"/>
<path d="M0 0 C1.32 1.32 2.64 2.64 4 4 C3.67 4.66 3.34 5.32 3 6 C1.35 5.67 -0.3 5.34 -2 5 C-1.125 1.125 -1.125 1.125 0 0 Z " fill="#AB806C" transform="translate(220,75)"/>
<path d="M0 0 C1.32 0.66 2.64 1.32 4 2 C1.82575883 4.50037734 0.26954202 5.43628586 -3 6 C-1.125 1.125 -1.125 1.125 0 0 Z " fill="#A97E6A" transform="translate(131,73)"/>
<path d="M0 0 C2.11180592 2.57089417 3.66306057 4.63060567 4 8 C3.34 8.66 2.68 9.32 2 10 C0.68373308 6.38026598 0 3.90432869 0 0 Z " fill="#AC8975" transform="translate(370,308)"/>
<path d="M0 0 C0.33 0.66 0.66 1.32 1 2 C-0.13304992 5.39914975 -1.12518475 6.05254451 -4 8 C-4.66 7.67 -5.32 7.34 -6 7 C-4.02 4.69 -2.04 2.38 0 0 Z " fill="#BA998A" transform="translate(160,265)"/>
<path d="M0 0 C6.625 0.75 6.625 0.75 10 3 C3.375 3.125 3.375 3.125 0 2 C0 1.34 0 0.68 0 0 Z " fill="#B39080" transform="translate(73,176)"/>
</svg>
