<?xml version="1.0" encoding="utf-8"?>
<svg version="1.1" width="500" height="500" xmlns="http://www.w3.org/2000/svg">
  <defs/>
  <path d="M0 0 C0.67595215 0.20367187 1.3519043 0.40734375 2.04833984 0.6171875 C21.42278556 6.6690751 37.812049 17.39032717 51.8828125 31.88671875 C53.86376534 33.86401669 55.9109689 35.65013856 58.0625 37.4375 C81.96150609 58.13111671 95.29855568 93.04060188 102 123 C102.36931641 124.61648438 102.36931641 124.61648438 102.74609375 126.265625 C107.17855679 149.62011993 104.06336953 172.53996515 90.74609375 192.4453125 C81.2838074 205.88338189 67.89734829 214.78944793 51.75 218.375 C37.53368173 220.34948865 25.20029592 218.76798497 11.53417969 214.72314453 C6.99425469 213.42764763 2.40479915 212.34213282 -2.1875 211.25 C-3.04835205 211.03964111 -3.9092041 210.82928223 -4.79614258 210.61254883 C-31.66288579 204.1894348 -60.09971537 208.58800997 -86.2578125 216.21484375 C-104.21560568 221.38363116 -122.36655338 220.60789207 -139.05078125 211.796875 C-144.14281217 208.69444556 -148.57243538 204.97591197 -153 201 C-153.72058594 200.38511719 -154.44117188 199.77023437 -155.18359375 199.13671875 C-168.72409235 186.81037792 -173.58351635 168.66876977 -175 151 C-175.27438611 144.51875893 -174.69426421 138.28373964 -173.75 131.875 C-173.61505127 130.95630127 -173.48010254 130.03760254 -173.34106445 129.09106445 C-166.95291794 87.60973458 -142.5681844 44.61095838 -108.578125 19.4140625 C-77.66536536 -2.58600158 -36.7092787 -11.27642218 0 0 Z M-107.46582031 62.67041016 C-128.75959319 88.20342957 -144.97959999 122.09877342 -142 156 C-140.58696734 165.79029774 -134.80517269 175.73683836 -126.93359375 181.78515625 C-118.50867695 187.0783868 -110.4457121 188.44526159 -100.7421875 186.26953125 C-98.27918866 185.60641618 -95.82242096 184.91988259 -93.37109375 184.21484375 C-88.20880659 182.74180659 -82.98489756 181.55881528 -77.75 180.375 C-76.85176514 180.16915283 -75.95353027 179.96330566 -75.02807617 179.7512207 C-73.23693777 179.34665381 -71.44347716 178.95224436 -69.64794922 178.56762695 C-67.9627755 178.20638512 -66.28137607 177.82668309 -64.60595703 177.42260742 C-54.99317392 175.32258113 -45.16620235 175.56113422 -35.375 175.5625 C-34.41968384 175.56110016 -33.46436768 175.55970032 -32.48010254 175.55825806 C-11.50628433 175.58352931 7.2678985 178.82469036 27 186 C35.21632094 188.52809875 44.27798936 187.58301294 52 184 C61.53160865 178.66229915 67.04072821 171.08418553 71 161 C76.97765296 133.59642225 63.26672806 101.24516277 48.71411133 78.48925781 C45.13360782 73.04672764 41.25826504 67.93284168 37 63 C36.33871094 62.19433594 35.67742187 61.38867188 34.99609375 60.55859375 C20.50085297 43.50065847 -0.45764548 30.33860277 -23 28 C-56.3160408 25.72558002 -85.34819245 37.46574496 -107.46582031 62.67041016 Z " fill="#985D42" style="vector-effect: non-scaling-stroke;" transform="translate(285,231)"/>
  <path d="M 281.625 241.369 C 282.241 241.55 282.858 241.731 283.495 241.919 C 301.193 247.309 316.161 256.856 329.015 269.767 C 330.823 271.529 332.693 273.119 334.659 274.711 C 356.489 293.14 368.672 324.231 374.792 350.913 C 375.131 352.353 375.131 352.353 375.474 353.82 C 380.579 374.621 380.512 398.347 366.935 416.151 C 357.917 427.974 343.642 434.816 328.895 435.853 C 315.908 437.611 304.642 436.203 292.159 432.601 C 288.013 431.447 283.82 430.48 279.624 429.509 C 278.838 429.321 278.053 429.133 277.243 428.94 C 252.701 423.219 226.727 427.137 202.833 433.928 C 186.429 438.532 168.827 439.889 153.587 432.042 C 148.936 429.28 143.866 425.796 139.822 422.255 C 139.163 421.708 138.291 420.867 137.657 420.256 C 119.508 402.776 122.333 390.76 121.774 375.849 C 121.523 370.077 122.051 364.525 122.914 358.817 C 123.039 357.998 123.162 357.181 123.288 356.337 C 129.124 319.394 151.397 281.1 182.444 258.66 C 210.682 239.066 248.092 231.327 281.625 241.369 Z" fill="#DCA590" style=""/>
  <path d="M0 0 C1.44074699 1.07255609 2.85692211 2.17871763 4.25 3.3125 C5.05953125 3.94929688 5.8690625 4.58609375 6.703125 5.2421875 C23.36956884 19.19905611 33.09024725 40.87083094 35.25 62.3125 C36.49131255 90.73880519 33.33948474 118.57469617 14.4375 141.1875 C5.37281757 150.750829 -6.86695939 159.00750266 -20.3515625 159.6484375 C-30.44063448 159.8302946 -39.34610722 159.37559498 -48.75 155.3125 C-49.678125 154.92320312 -50.60625 154.53390625 -51.5625 154.1328125 C-68.28830719 146.10252439 -78.7079793 129.47211321 -84.7578125 112.51171875 C-93.09538771 85.62796247 -92.50466152 54.00450534 -79.83886719 28.47607422 C-71.1472137 12.19840334 -58.269491 0.16105109 -40.625 -5.5 C-27.14884211 -8.80726583 -11.88426419 -7.4718929 0 0 Z " fill="#995E43" transform="translate(351.75,56.6875)"/>
  <path d="M0 0 C0.93005859 0.67675781 0.93005859 0.67675781 1.87890625 1.3671875 C18.24329506 14.32690481 28.19518662 37.15113284 30.78515625 57.55078125 C32.50919091 85.22937409 29.61927207 114.4564889 10.625 136.1875 C9.10070032 137.80817803 7.55979289 139.41345251 6 141 C5.36191406 141.65097656 4.72382813 142.30195313 4.06640625 142.97265625 C-2.98318488 149.6411884 -12.32509124 154.64686591 -22 156 C-23.53914063 156.2165625 -23.53914063 156.2165625 -25.109375 156.4375 C-40.23750374 158.05116707 -53.17644239 154.39898779 -65.1875 145.1875 C-81.34525963 131.60086592 -91.34971146 110.4264193 -93.7890625 89.52099609 C-96.10963578 61.78692237 -92.54249577 32.89568928 -74.359375 10.671875 C-55.67055777 -11.03848754 -24.00109005 -17.7885174 0 0 Z " fill="#995E43" transform="translate(207,60)"/>
  <path d="M0 0 C0.70125 0.24234375 1.4025 0.4846875 2.125 0.734375 C17.34923732 6.95093857 29.35550276 24.48683922 35.4921875 39.03515625 C43.32775164 58.94931642 43.88571507 81.69361993 35.50390625 101.54296875 C34.09338513 104.43084367 32.61681799 107.22338458 31 110 C30.48566406 110.93328125 29.97132812 111.8665625 29.44140625 112.828125 C28.72791016 113.90320313 28.72791016 113.90320313 28 115 C27.34 115 26.68 115 26 115 C25.773125 115.5775 25.54625 116.155 25.3125 116.75 C21.642206 123.04193257 12.81787591 127.95986592 6.046875 130.375 C-9.30149347 133.52338328 -24.95066848 130.63986164 -38.41015625 122.75390625 C-54.62440984 111.77321264 -66.51499701 94.01098387 -70.37890625 74.7421875 C-71.33118996 68.63406415 -71.39030868 62.48318687 -71.4375 56.3125 C-71.4478125 55.19641357 -71.458125 54.08032715 -71.46875 52.93041992 C-71.2873417 35.81379132 -66.069296 20.41351834 -54 8 C-47.69312383 2.53264145 -40.9606365 -0.63469906 -33 -3 C-32.38769531 -3.19207031 -31.77539062 -3.38414062 -31.14453125 -3.58203125 C-20.47833135 -5.66087167 -9.98504061 -3.9385438 0 0 Z " fill="#985E42" transform="translate(85,179)"/>
  <path d="M 0 0 C 11.677 9.673 19.619 21.886 22 37 C 23.333 51.98 22.668 66.672 18 81 C 17.711 81.933 17.423 82.867 17.125 83.828 C 11.616 100.361 -1.743 114.084 -17 122.25 C -18.323 122.856 -19.657 123.439 -21 124 C -21.677 124.299 -22.354 124.598 -23.051 124.906 C -33.641 128.857 -48.165 128.911 -58.52 124.32 C -72.233 117.021 -81.468 108.37 -86.156 93.277 C -92.247 71.682 -91.987 47.329 -80.99 27.146 C -78.532 22.947 -75.821 18.963 -73 15 C -72.531 14.313 -72.062 13.626 -71.578 12.918 C -64.345 3.386 -50.404 -5.418 -38.754 -7.687 C -24.547 -9.3 -12.282 -7.759 0 0 Z" fill="#995E43" transform="translate(464,183)"/>
  <path d="M 338.798 61.996 C 358.297 72.392 370.125 88.601 375.853 106.577 C 382.467 133.065 379.628 163.588 360.766 186.532 C 344.088 204.128 344.088 204.128 330.533 206.167 C 317.936 206.668 307.985 204.948 298.328 198.279 C 277.759 179.937 270.954 159.701 271.042 135.571 C 271.042 134.58 271.043 133.587 271.044 132.566 C 271.149 109.568 275.099 87.706 295.445 70.102 C 307.81 61.065 322.743 55.667 338.798 61.996 Z" fill="#DCA590" style=""/>
  <path d="M 188.334 61.496 C 207.772 70.16 219.022 85.829 225.224 102.74 C 228.397 112.542 228.689 122.141 228.665 132.234 C 228.661 134.119 228.657 136.004 228.653 137.945 C 228.153 159.579 222.044 179.571 203.28 195.67 C 194.952 202.077 186.561 206.595 174.927 207.352 C 161.575 206.822 152.606 199.36 143.827 191.86 C 123.472 171.945 119.752 144.894 122.178 120.006 C 125.266 100.423 133.362 80.678 152.179 67.432 C 153.884 66.401 155.588 65.37 157.344 64.308 C 158.65 63.454 159.955 62.6 161.3 61.72 C 170.396 58.529 179.102 58.55 188.334 61.496 Z" fill="#DCA590" style=""/>
  <path d="M 456.842 187.556 C 472.581 195.952 475.001 199.492 479.531 212.844 C 480.172 215.093 480.555 217.943 481.01 219.983 C 484.255 234.534 480.322 244.769 476.142 255.884 C 472.032 266.814 465.796 277.346 453.635 287.737 C 441.889 296.531 432.841 300.682 416.577 301.616 C 408.45 300.94 400.228 296.944 395.967 292.415 C 394.42 290.859 397.569 294.054 395.975 292.45 C 394.514 291.031 397.477 293.89 395.972 292.426 C 388.472 286.981 382.025 277 379.768 267.649 C 376.973 256.065 379.521 243.42 382.119 233.116 C 389.361 213.168 402.454 196.253 426.432 187.08 C 436.768 183.309 446.008 184.228 456.842 187.556 Z" fill="#DCA58F" style="transform-box: fill-box; transform-origin: 50% 50%;" transform="matrix(0.970296, -0.241922, 0.241922, 0.970296, 0.000003, -0.000003)"/>
  <path d="M 77.378 184.449 C 81.771 186.319 74.091 182.534 78.279 184.744 C 83.277 187.38 87.966 188.692 91.495 192.548 C 93.293 194.512 98.84 200.217 103.268 206.334 C 107.163 211.716 109.974 217.478 111.608 220.432 C 114.757 226.124 110.981 218.583 112.602 222.628 C 118.664 236.445 118.162 257.844 114.244 272.161 C 112.38 278.97 107.495 284.706 103.641 289.827 C 98.538 296.163 93.595 299.246 84.559 300.661 C 70.491 301.312 60.942 299.907 50.243 292.441 C 42.276 286.378 33.141 275.825 28.299 267.33 C 27.595 266.096 27.596 265.726 26.82 264.485 C 19.299 249.067 20.742 224.021 26.666 207.876 C 35.729 190.852 56.316 179.362 77.378 184.449 Z" fill="#DCA58F" style=""/>
</svg>